<svg xmlns="http://www.w3.org/2000/svg" viewBox="0 0 1200 552" role="img" aria-labelledby="m-aces-color-pipeline-camera-through-the-aces2065-1-interchange-to-a-graded-master-and-deliverables-with-vfx-vendors-as-a-tangent-process-off-the-interchange-title m-aces-color-pipeline-camera-through-the-aces2065-1-interchange-to-a-graded-master-and-deliverables-with-vfx-vendors-as-a-tangent-process-off-the-interchange-desc" preserveAspectRatio="xMidYMid meet"><title id="m-aces-color-pipeline-camera-through-the-aces2065-1-interchange-to-a-graded-master-and-deliverables-with-vfx-vendors-as-a-tangent-process-off-the-interchange-title">ACES color pipeline: camera through the ACES2065-1 interchange to a graded master and deliverables, with VFX vendors as a tangent process off the interchange</title><desc id="m-aces-color-pipeline-camera-through-the-aces2065-1-interchange-to-a-graded-master-and-deliverables-with-vfx-vendors-as-a-tangent-process-off-the-interchange-desc">A left-to-right post-production workflow with supporting inputs, a compositing branch, and multiple delivery outputs.</desc><style>
  svg{display:block;width:100%;height:auto;font-family:var(--m-font,ui-sans-serif,-apple-system,BlinkMacSystemFont,"Segoe UI",sans-serif);color:var(--m-text);background:var(--m-surface);border:1px solid var(--m-line);border-radius:16px;box-shadow:var(--m-shadow)}
  text{fill:var(--m-text)} .muted{fill:var(--m-muted)} .subtle{fill:var(--m-subtle)}
  .label{font-size:15px;font-weight:650;letter-spacing:-.01em}.wf-label{font-size:13px;font-weight:650;letter-spacing:-.01em}.eyebrow{font-size:10px;font-weight:700;letter-spacing:.09em;text-transform:uppercase}.detail{font-size:11px}.mono{font-family:var(--m-mono,monospace);font-variant-numeric:tabular-nums}.keyline{stroke:var(--m-line)}
</style><defs><marker id="m-aces-color-pipeline-camera-through-the-aces2065-1-interchange-to-a-graded-master-and-deliverables-with-vfx-vendors-as-a-tangent-process-off-the-interchange-arrow" viewBox="0 0 10 10" refX="8" refY="5" markerWidth="6" markerHeight="6" orient="auto"><path d="M1 1l8 4-8 4z" fill="var(--m-line-strong)"/></marker></defs><rect x="952" y="118" width="232" height="418" rx="16" fill="var(--m-surface-raised)" stroke="var(--m-line)" stroke-dasharray="4 4"/><text x="976" y="140" class="eyebrow muted">DELIVERABLES</text><path d="M200 288H236" fill="none" stroke="var(--m-line-strong)" stroke-width="1.5" marker-end="url(#m-aces-color-pipeline-camera-through-the-aces2065-1-interchange-to-a-graded-master-and-deliverables-with-vfx-vendors-as-a-tangent-process-off-the-interchange-arrow)"/><path d="M392 288H396Q406 288 406 278V106Q406 96 416 96H428" fill="none" stroke="var(--m-line-strong)" stroke-width="1.5" marker-end="url(#m-aces-color-pipeline-camera-through-the-aces2065-1-interchange-to-a-graded-master-and-deliverables-with-vfx-vendors-as-a-tangent-process-off-the-interchange-arrow)"/><path d="M392 288H428" fill="none" stroke="var(--m-line-strong)" stroke-width="1.5" marker-end="url(#m-aces-color-pipeline-camera-through-the-aces2065-1-interchange-to-a-graded-master-and-deliverables-with-vfx-vendors-as-a-tangent-process-off-the-interchange-arrow)"/><path d="M584 288H620" fill="none" stroke="var(--m-line-strong)" stroke-width="1.5" marker-end="url(#m-aces-color-pipeline-camera-through-the-aces2065-1-interchange-to-a-graded-master-and-deliverables-with-vfx-vendors-as-a-tangent-process-off-the-interchange-arrow)"/><path d="M776 288H972Q982 288 982 278V202Q982 192 992 192H1004" fill="none" stroke="var(--m-line-strong)" stroke-width="1.5" marker-end="url(#m-aces-color-pipeline-camera-through-the-aces2065-1-interchange-to-a-graded-master-and-deliverables-with-vfx-vendors-as-a-tangent-process-off-the-interchange-arrow)"/><path d="M776 288H1004" fill="none" stroke="var(--m-line-strong)" stroke-width="1.5" marker-end="url(#m-aces-color-pipeline-camera-through-the-aces2065-1-interchange-to-a-graded-master-and-deliverables-with-vfx-vendors-as-a-tangent-process-off-the-interchange-arrow)"/><path d="M776 288H972Q982 288 982 298V374Q982 384 992 384H1004" fill="none" stroke="var(--m-line-strong)" stroke-width="1.5" marker-end="url(#m-aces-color-pipeline-camera-through-the-aces2065-1-interchange-to-a-graded-master-and-deliverables-with-vfx-vendors-as-a-tangent-process-off-the-interchange-arrow)"/><path d="M776 288H972Q982 288 982 298V470Q982 480 992 480H1004" fill="none" stroke="var(--m-line-strong)" stroke-width="1.5" marker-end="url(#m-aces-color-pipeline-camera-through-the-aces2065-1-interchange-to-a-graded-master-and-deliverables-with-vfx-vendors-as-a-tangent-process-off-the-interchange-arrow)"/><g role="group" aria-label="Camera / Source"><rect x="44" y="256" width="156" height="64" rx="12" fill="var(--m-green-soft)" stroke="var(--m-green)"/><g color="var(--m-green)"><g transform="translate(60 276) scale(1)" fill="none" stroke="currentColor" stroke-width="1.7" stroke-linecap="round" stroke-linejoin="round" aria-hidden="true"><path d="M23 19a2 2 0 0 1-2 2H3a2 2 0 0 1-2-2V8a2 2 0 0 1 2-2h4l2-3h6l2 3h4a2 2 0 0 1 2 2z"/><circle cx="12" cy="13" r="4"/></g></g><text class="wf-label"><tspan x="94" y="284">Camera</tspan><tspan x="94" y="302">/ Source</tspan></text></g><g role="group" aria-label="ACES2065-1"><rect x="236" y="256" width="156" height="64" rx="12" fill="var(--m-blue-soft)" stroke="var(--m-blue)"/><g color="var(--m-blue)"><g transform="translate(252 276) scale(1)" fill="none" stroke="currentColor" stroke-width="1.7" stroke-linecap="round" stroke-linejoin="round" aria-hidden="true"><circle cx="12" cy="12" r="10"/><line x1="14.31" y1="8" x2="20.05" y2="17.94"/><line x1="9.69" y1="8" x2="21.17" y2="8"/><line x1="7.38" y1="12" x2="13.12" y2="2.06"/><line x1="9.69" y1="16" x2="3.95" y2="6.06"/><line x1="14.31" y1="16" x2="2.83" y2="16"/><line x1="16.62" y1="12" x2="10.88" y2="21.94"/></g></g><text class="wf-label"><tspan x="286" y="293">ACES2065-1</tspan></text></g><g role="group" aria-label="VFX Vendors"><rect x="428" y="64" width="156" height="64" rx="12" fill="var(--m-green-soft)" stroke="var(--m-green)"/><g color="var(--m-green)"><g transform="translate(444 84) scale(1)" fill="none" stroke="currentColor" stroke-width="1.7" stroke-linecap="round" stroke-linejoin="round" aria-hidden="true"><rect x="3" y="3" width="18" height="18" rx="2" ry="2"/><circle cx="8.5" cy="8.5" r="1.5"/><polyline points="21 15 16 10 5 21"/></g></g><text class="wf-label"><tspan x="478" y="101">VFX Vendors</tspan></text></g><g role="group" aria-label="ACEScct Grade"><rect x="428" y="256" width="156" height="64" rx="12" fill="var(--m-violet-soft)" stroke="var(--m-violet)"/><g color="var(--m-violet)"><g transform="translate(444 276) scale(1)" fill="none" stroke="currentColor" stroke-width="1.7" stroke-linecap="round" stroke-linejoin="round" aria-hidden="true"><circle cx="13.5" cy="6.5" r=".6" fill="currentColor" stroke="none"/><circle cx="17.5" cy="10.5" r=".6" fill="currentColor" stroke="none"/><circle cx="8.5" cy="7.5" r=".6" fill="currentColor" stroke="none"/><circle cx="6.5" cy="12.5" r=".6" fill="currentColor" stroke="none"/><path d="M12 2C6.5 2 2 6.5 2 12s4.5 10 10 10c.926 0 1.648-.746 1.648-1.688 0-.437-.18-.835-.437-1.125-.29-.289-.438-.652-.438-1.125a1.64 1.64 0 0 1 1.668-1.668h1.996c3.051 0 5.555-2.503 5.555-5.554C21.965 6.012 17.461 2 12 2z"/></g></g><text class="wf-label"><tspan x="478" y="293">ACEScct Grade</tspan></text></g><g role="group" aria-label="Graded Master"><rect x="620" y="256" width="156" height="64" rx="12" fill="var(--m-blue-soft)" stroke="var(--m-blue)"/><g color="var(--m-blue)"><g transform="translate(636 276) scale(1)" fill="none" stroke="currentColor" stroke-width="1.7" stroke-linecap="round" stroke-linejoin="round" aria-hidden="true"><polygon points="12 2 2 7 12 12 22 7 12 2"/><polyline points="2 17 12 22 22 17"/><polyline points="2 12 12 17 22 12"/></g></g><text class="wf-label"><tspan x="670" y="293">Graded Master</tspan></text></g><g role="group" aria-label="Rec.709"><rect x="1004" y="160" width="156" height="64" rx="12" fill="var(--m-coral-soft)" stroke="var(--m-coral)"/><g color="var(--m-coral)"><g transform="translate(1020 180) scale(1)" fill="none" stroke="currentColor" stroke-width="1.7" stroke-linecap="round" stroke-linejoin="round" aria-hidden="true"><rect x="2" y="3" width="20" height="14" rx="2" ry="2"/><line x1="8" y1="21" x2="16" y2="21"/><line x1="12" y1="17" x2="12" y2="21"/></g></g><text class="wf-label"><tspan x="1054" y="197">Rec.709</tspan></text></g><g role="group" aria-label="P3-D65"><rect x="1004" y="256" width="156" height="64" rx="12" fill="var(--m-coral-soft)" stroke="var(--m-coral)"/><g color="var(--m-coral)"><g transform="translate(1020 276) scale(1)" fill="none" stroke="currentColor" stroke-width="1.7" stroke-linecap="round" stroke-linejoin="round" aria-hidden="true"><rect x="2" y="3" width="20" height="14" rx="2" ry="2"/><line x1="8" y1="21" x2="16" y2="21"/><line x1="12" y1="17" x2="12" y2="21"/></g></g><text class="wf-label"><tspan x="1054" y="293">P3-D65</tspan></text></g><g role="group" aria-label="Rec.2100 PQ"><rect x="1004" y="352" width="156" height="64" rx="12" fill="var(--m-coral-soft)" stroke="var(--m-coral)"/><g color="var(--m-coral)"><g transform="translate(1020 372) scale(1)" fill="none" stroke="currentColor" stroke-width="1.7" stroke-linecap="round" stroke-linejoin="round" aria-hidden="true"><circle cx="12" cy="12" r="5"/><line x1="12" y1="1" x2="12" y2="3"/><line x1="12" y1="21" x2="12" y2="23"/><line x1="4.22" y1="4.22" x2="5.64" y2="5.64"/><line x1="18.36" y1="18.36" x2="19.78" y2="19.78"/><line x1="1" y1="12" x2="3" y2="12"/><line x1="21" y1="12" x2="23" y2="12"/><line x1="4.22" y1="19.78" x2="5.64" y2="18.36"/><line x1="18.36" y1="5.64" x2="19.78" y2="4.22"/></g></g><text class="wf-label"><tspan x="1054" y="389">Rec.2100 PQ</tspan></text></g><g role="group" aria-label="DCDM"><rect x="1004" y="448" width="156" height="64" rx="12" fill="var(--m-coral-soft)" stroke="var(--m-coral)"/><g color="var(--m-coral)"><g transform="translate(1020 468) scale(1)" fill="none" stroke="currentColor" stroke-width="1.7" stroke-linecap="round" stroke-linejoin="round" aria-hidden="true"><line x1="16.5" y1="9.4" x2="7.5" y2="4.21"/><path d="M21 16V8a2 2 0 0 0-1-1.73l-7-4a2 2 0 0 0-2 0l-7 4A2 2 0 0 0 3 8v8a2 2 0 0 0 1 1.73l7 4a2 2 0 0 0 2 0l7-4A2 2 0 0 0 21 16z"/><polyline points="3.27 6.96 12 12.01 20.73 6.96"/><line x1="12" y1="22.08" x2="12" y2="12"/></g></g><text class="wf-label"><tspan x="1054" y="485">DCDM</tspan></text></g></svg>