<svg xmlns="http://www.w3.org/2000/svg" viewBox="0 0 1008 552" role="img" aria-labelledby="m-aces-color-pipeline-camera-through-the-aces2065-1-interchange-to-a-graded-master-and-deliverables-with-vfx-vendors-as-a-tangent-process-off-the-interchange-title m-aces-color-pipeline-camera-through-the-aces2065-1-interchange-to-a-graded-master-and-deliverables-with-vfx-vendors-as-a-tangent-process-off-the-interchange-desc" preserveAspectRatio="xMidYMid meet"><title id="m-aces-color-pipeline-camera-through-the-aces2065-1-interchange-to-a-graded-master-and-deliverables-with-vfx-vendors-as-a-tangent-process-off-the-interchange-title">ACES color pipeline: camera through the ACES2065-1 interchange to a graded master and deliverables, with VFX vendors as a tangent process off the interchange</title><desc id="m-aces-color-pipeline-camera-through-the-aces2065-1-interchange-to-a-graded-master-and-deliverables-with-vfx-vendors-as-a-tangent-process-off-the-interchange-desc">A left-to-right post-production workflow with supporting inputs, a compositing branch, and multiple delivery outputs.</desc><style>
  svg{display:block;width:100%;height:auto;font-family:var(--m-font,ui-sans-serif,-apple-system,BlinkMacSystemFont,"Segoe UI",sans-serif);color:var(--m-text);background:var(--m-surface);border:1px solid var(--m-line);border-radius:16px;box-shadow:var(--m-shadow)}
  text{fill:var(--m-text)} .muted{fill:var(--m-muted)} .subtle{fill:var(--m-subtle)}
  .label{font-size:15px;font-weight:650;letter-spacing:-.01em}.wf-label{font-size:13px;font-weight:650;letter-spacing:-.01em}.eyebrow{font-size:10px;font-weight:700;letter-spacing:.09em;text-transform:uppercase}.detail{font-size:11px}.mono{font-family:var(--m-mono,monospace);font-variant-numeric:tabular-nums}.keyline{stroke:var(--m-line)}
</style><defs><marker id="m-aces-color-pipeline-camera-through-the-aces2065-1-interchange-to-a-graded-master-and-deliverables-with-vfx-vendors-as-a-tangent-process-off-the-interchange-arrow" viewBox="0 0 10 10" refX="8" refY="5" markerWidth="6" markerHeight="6" orient="auto"><path d="M1 1l8 4-8 4z" fill="var(--m-line-strong)"/></marker></defs><rect x="788" y="118" width="204" height="418" rx="16" fill="var(--m-surface-raised)" stroke="var(--m-line)" stroke-dasharray="4 4"/><text x="812" y="140" class="eyebrow muted">DELIVERABLES</text><path d="M200 288H236" fill="none" stroke="var(--m-line-strong)" stroke-width="1.5" marker-end="url(#m-aces-color-pipeline-camera-through-the-aces2065-1-interchange-to-a-graded-master-and-deliverables-with-vfx-vendors-as-a-tangent-process-off-the-interchange-arrow)"/><path d="M392 288H414V96H428" fill="none" stroke="var(--m-line-strong)" stroke-width="1.5" marker-end="url(#m-aces-color-pipeline-camera-through-the-aces2065-1-interchange-to-a-graded-master-and-deliverables-with-vfx-vendors-as-a-tangent-process-off-the-interchange-arrow)"/><path d="M392 288H428" fill="none" stroke="var(--m-line-strong)" stroke-width="1.5" marker-end="url(#m-aces-color-pipeline-camera-through-the-aces2065-1-interchange-to-a-graded-master-and-deliverables-with-vfx-vendors-as-a-tangent-process-off-the-interchange-arrow)"/><path d="M584 288H620" fill="none" stroke="var(--m-line-strong)" stroke-width="1.5" marker-end="url(#m-aces-color-pipeline-camera-through-the-aces2065-1-interchange-to-a-graded-master-and-deliverables-with-vfx-vendors-as-a-tangent-process-off-the-interchange-arrow)"/><path d="M776 288H790V192H812" fill="none" stroke="var(--m-line-strong)" stroke-width="1.5" marker-end="url(#m-aces-color-pipeline-camera-through-the-aces2065-1-interchange-to-a-graded-master-and-deliverables-with-vfx-vendors-as-a-tangent-process-off-the-interchange-arrow)"/><path d="M776 288H812" fill="none" stroke="var(--m-line-strong)" stroke-width="1.5" marker-end="url(#m-aces-color-pipeline-camera-through-the-aces2065-1-interchange-to-a-graded-master-and-deliverables-with-vfx-vendors-as-a-tangent-process-off-the-interchange-arrow)"/><path d="M776 288H790V384H812" fill="none" stroke="var(--m-line-strong)" stroke-width="1.5" marker-end="url(#m-aces-color-pipeline-camera-through-the-aces2065-1-interchange-to-a-graded-master-and-deliverables-with-vfx-vendors-as-a-tangent-process-off-the-interchange-arrow)"/><path d="M776 288H798V480H812" fill="none" stroke="var(--m-line-strong)" stroke-width="1.5" marker-end="url(#m-aces-color-pipeline-camera-through-the-aces2065-1-interchange-to-a-graded-master-and-deliverables-with-vfx-vendors-as-a-tangent-process-off-the-interchange-arrow)"/><g role="group" aria-label="Camera / Source"><rect x="44" y="256" width="156" height="64" rx="12" fill="var(--m-green-soft)" stroke="var(--m-green)"/><g color="var(--m-green)"><g transform="translate(60 276) scale(1)" fill="none" stroke="currentColor" stroke-width="1.7" stroke-linecap="round" stroke-linejoin="round" aria-hidden="true"><path d="M3 7h4l1.5-2h7L17 7h4v12H3z"/><circle cx="12" cy="13" r="4"/></g></g><text class="wf-label"><tspan x="94" y="284">Camera</tspan><tspan x="94" y="302">/ Source</tspan></text></g><g role="group" aria-label="ACES2065-1"><rect x="236" y="256" width="156" height="64" rx="12" fill="var(--m-blue-soft)" stroke="var(--m-blue)"/><g color="var(--m-blue)"><g transform="translate(252 276) scale(1)" fill="none" stroke="currentColor" stroke-width="1.7" stroke-linecap="round" stroke-linejoin="round" aria-hidden="true"><path d="M12 3 3 20h18L12 3Z"/><path d="m8 15 4-7 4 7H8Z"/></g></g><text class="wf-label"><tspan x="286" y="293">ACES2065-1</tspan></text></g><g role="group" aria-label="VFX Vendors"><rect x="428" y="64" width="156" height="64" rx="12" fill="var(--m-green-soft)" stroke="var(--m-green)"/><g color="var(--m-green)"><g transform="translate(444 84) scale(1)" fill="none" stroke="currentColor" stroke-width="1.7" stroke-linecap="round" stroke-linejoin="round" aria-hidden="true"><rect x="3" y="5" width="18" height="14" rx="2"/><path d="m3 9 4-4 4 4 4-4 4 4M8 15l3-3 5 5"/></g></g><text class="wf-label"><tspan x="478" y="101">VFX Vendors</tspan></text></g><g role="group" aria-label="ACEScct Grade"><rect x="428" y="256" width="156" height="64" rx="12" fill="var(--m-violet-soft)" stroke="var(--m-violet)"/><g color="var(--m-violet)"><g transform="translate(444 276) scale(1)" fill="none" stroke="currentColor" stroke-width="1.7" stroke-linecap="round" stroke-linejoin="round" aria-hidden="true"><circle cx="12" cy="12" r="9"/><path d="m12 5 2.2 4.2 4.8.7-3.5 3.4.8 4.7-4.3-2.2L7.7 18l.8-4.7L5 9.9l4.8-.7L12 5Z"/></g></g><text class="wf-label"><tspan x="478" y="293">ACEScct Grade</tspan></text></g><g role="group" aria-label="Graded Master"><rect x="620" y="256" width="156" height="64" rx="12" fill="var(--m-blue-soft)" stroke="var(--m-blue)"/><g color="var(--m-blue)"><g transform="translate(636 276) scale(1)" fill="none" stroke="currentColor" stroke-width="1.7" stroke-linecap="round" stroke-linejoin="round" aria-hidden="true"><path d="M6 2.5h9l4 4V21.5H6z"/><path d="M15 2.5v4h4M8.5 16h7M8.5 12h7"/></g></g><text class="wf-label"><tspan x="670" y="293">Graded Master</tspan></text></g><g role="group" aria-label="Rec.709"><rect x="812" y="160" width="156" height="64" rx="12" fill="var(--m-coral-soft)" stroke="var(--m-coral)"/><g color="var(--m-coral)"><g transform="translate(828 180) scale(1)" fill="none" stroke="currentColor" stroke-width="1.7" stroke-linecap="round" stroke-linejoin="round" aria-hidden="true"><rect x="2.5" y="4" width="19" height="14" rx="2"/><path d="M8 21h8M12 18v3"/></g></g><text class="wf-label"><tspan x="862" y="197">Rec.709</tspan></text></g><g role="group" aria-label="P3-D65"><rect x="812" y="256" width="156" height="64" rx="12" fill="var(--m-coral-soft)" stroke="var(--m-coral)"/><g color="var(--m-coral)"><g transform="translate(828 276) scale(1)" fill="none" stroke="currentColor" stroke-width="1.7" stroke-linecap="round" stroke-linejoin="round" aria-hidden="true"><rect x="2.5" y="4" width="19" height="14" rx="2"/><path d="M8 21h8M12 18v3"/></g></g><text class="wf-label"><tspan x="862" y="293">P3-D65</tspan></text></g><g role="group" aria-label="Rec.2100 PQ"><rect x="812" y="352" width="156" height="64" rx="12" fill="var(--m-coral-soft)" stroke="var(--m-coral)"/><g color="var(--m-coral)"><g transform="translate(828 372) scale(1)" fill="none" stroke="currentColor" stroke-width="1.7" stroke-linecap="round" stroke-linejoin="round" aria-hidden="true"><circle cx="12" cy="12" r="4"/><path d="M12 1v3M12 20v3M1 12h3M20 12h3M4.2 4.2l2.1 2.1M17.7 17.7l2.1 2.1M19.8 4.2l-2.1 2.1M6.3 17.7l-2.1 2.1"/></g></g><text class="wf-label"><tspan x="862" y="389">Rec.2100 PQ</tspan></text></g><g role="group" aria-label="DCDM"><rect x="812" y="448" width="156" height="64" rx="12" fill="var(--m-coral-soft)" stroke="var(--m-coral)"/><g color="var(--m-coral)"><g transform="translate(828 468) scale(1)" fill="none" stroke="currentColor" stroke-width="1.7" stroke-linecap="round" stroke-linejoin="round" aria-hidden="true"><path d="M4 5h16v14H4zM8 5v14M16 5v14M4 9h4M16 9h4M4 15h4M16 15h4"/></g></g><text class="wf-label"><tspan x="862" y="485">DCDM</tspan></text></g></svg>