<svg xmlns="http://www.w3.org/2000/svg" width="1000" height="900" viewBox="0 0 1000 900" font-family="ui-sans-serif, system-ui, sans-serif">
<title>Color Plotter — CIE 1931 xy</title>
<rect x="0" y="0" width="1000" height="900" fill="#ffffff"/>
<defs><clipPath id="cp-plot"><rect x="154.5" y="22.26" width="729" height="835.48"/></clipPath></defs>
<g clip-path="url(#cp-plot)">
<line x1="203.65" y1="857.74" x2="203.65" y2="22.26" stroke="rgba(0,0,0,0.07)" stroke-width="1"/>
<line x1="285.56" y1="857.74" x2="285.56" y2="22.26" stroke="rgba(0,0,0,0.07)" stroke-width="1"/>
<line x1="367.47" y1="857.74" x2="367.47" y2="22.26" stroke="rgba(0,0,0,0.07)" stroke-width="1"/>
<line x1="449.38" y1="857.74" x2="449.38" y2="22.26" stroke="rgba(0,0,0,0.07)" stroke-width="1"/>
<line x1="531.29" y1="857.74" x2="531.29" y2="22.26" stroke="rgba(0,0,0,0.07)" stroke-width="1"/>
<line x1="613.2" y1="857.74" x2="613.2" y2="22.26" stroke="rgba(0,0,0,0.07)" stroke-width="1"/>
<line x1="695.11" y1="857.74" x2="695.11" y2="22.26" stroke="rgba(0,0,0,0.07)" stroke-width="1"/>
<line x1="777.02" y1="857.74" x2="777.02" y2="22.26" stroke="rgba(0,0,0,0.07)" stroke-width="1"/>
<line x1="858.93" y1="857.74" x2="858.93" y2="22.26" stroke="rgba(0,0,0,0.07)" stroke-width="1"/>
<line x1="154.5" y1="841.36" x2="883.5" y2="841.36" stroke="rgba(0,0,0,0.07)" stroke-width="1"/>
<line x1="154.5" y1="759.45" x2="883.5" y2="759.45" stroke="rgba(0,0,0,0.07)" stroke-width="1"/>
<line x1="154.5" y1="677.54" x2="883.5" y2="677.54" stroke="rgba(0,0,0,0.07)" stroke-width="1"/>
<line x1="154.5" y1="595.63" x2="883.5" y2="595.63" stroke="rgba(0,0,0,0.07)" stroke-width="1"/>
<line x1="154.5" y1="513.72" x2="883.5" y2="513.72" stroke="rgba(0,0,0,0.07)" stroke-width="1"/>
<line x1="154.5" y1="431.81" x2="883.5" y2="431.81" stroke="rgba(0,0,0,0.07)" stroke-width="1"/>
<line x1="154.5" y1="349.9" x2="883.5" y2="349.9" stroke="rgba(0,0,0,0.07)" stroke-width="1"/>
<line x1="154.5" y1="267.99" x2="883.5" y2="267.99" stroke="rgba(0,0,0,0.07)" stroke-width="1"/>
<line x1="154.5" y1="186.08" x2="883.5" y2="186.08" stroke="rgba(0,0,0,0.07)" stroke-width="1"/>
<line x1="154.5" y1="104.17" x2="883.5" y2="104.17" stroke="rgba(0,0,0,0.07)" stroke-width="1"/>
<line x1="154.5" y1="22.26" x2="883.5" y2="22.26" stroke="rgba(0,0,0,0.07)" stroke-width="1"/>
<path d="M346.26 755.38 L345.28 754.92 L344.31 754.49 L343.33 754.06 L342.35 753.6 L341.36 753.07 L340.35 752.44 L339 751.45 L337.64 750.29 L336.25 749.03 L334.84 747.68 L333.4 746.31 L331.95 744.95 L330.25 743.39 L328.46 741.77 L326.66 740.11 L324.87 738.43 L323.16 736.76 L321.56 735.12 L320.27 733.7 L319.02 732.25 L317.83 730.82 L316.7 729.41 L315.63 728.06 L314.64 726.78 L313.95 725.91 L313.32 725.1 L312.74 724.32 L312.16 723.54 L311.57 722.7 L310.95 721.77 L310.07 720.41 L309.19 718.97 L308.28 717.43 L307.34 715.79 L306.35 714.02 L305.31 712.1 L303.56 708.83 L301.64 705.19 L299.62 701.26 L297.54 697.09 L295.46 692.75 L293.41 688.32 L290.94 682.67 L288.46 676.76 L285.96 670.6 L283.46 664.19 L280.95 657.57 L278.42 650.75 L275.35 642.24 L272.22 633.39 L269.08 624.22 L265.96 614.76 L262.9 605.02 L259.92 595.04 L256.56 583.04 L253.26 570.62 L250.04 557.84 L246.89 544.74 L243.82 531.38 L240.83 517.83 L237.57 502.46 L234.37 486.66 L231.27 470.55 L228.3 454.23 L225.49 437.82 L222.86 421.4 L220.32 404.42 L217.91 387.23 L215.66 369.93 L213.62 352.63 L211.83 335.42 L210.34 318.43 L209.12 302.23 L208.06 286.04 L207.23 269.94 L206.7 254.02 L206.54 238.37 L206.81 223.08 L207.34 209.38 L208.08 195.75 L209.12 182.34 L210.55 169.31 L212.48 156.8 L215.01 144.97 L217.49 135.4 L220.24 125.95 L223.33 116.87 L226.84 108.4 L230.86 100.8 L235.47 94.33 L239.6 89.94 L244.16 86.03 L249.03 82.66 L254.11 79.9 L259.3 77.82 L264.51 76.48 L269.73 76.04 L275.14 76.46 L280.66 77.53 L286.21 79.06 L291.74 80.85 L297.16 82.7 L302.96 84.95 L308.93 87.72 L314.86 90.77 L320.56 93.89 L325.8 96.83 L330.38 99.37 L332.8 100.69 L334.94 101.87 L336.89 102.99 L338.79 104.11 L340.75 105.3 L342.89 106.63 L345.77 108.45 L348.73 110.38 L351.79 112.42 L354.96 114.57 L358.23 116.83 L361.63 119.22 L366.27 122.52 L371.2 126.09 L376.31 129.85 L381.51 133.73 L386.68 137.66 L391.73 141.58 L396.72 145.55 L401.69 149.58 L406.63 153.66 L411.55 157.79 L416.45 161.96 L421.34 166.15 L426.27 170.44 L431.18 174.76 L436.08 179.12 L440.95 183.52 L445.83 187.94 L450.69 192.38 L455.59 196.89 L460.49 201.42 L465.37 205.99 L470.24 210.57 L475.11 215.17 L479.98 219.79 L484.87 224.44 L489.76 229.12 L494.64 233.82 L499.52 238.53 L504.39 243.24 L509.25 247.96 L514.13 252.7 L519 257.45 L523.87 262.21 L528.73 266.97 L533.59 271.74 L538.44 276.5 L543.28 281.26 L548.11 286.03 L552.94 290.79 L557.76 295.56 L562.58 300.32 L567.38 305.08 L572.14 309.8 L576.89 314.53 L581.64 319.25 L586.38 323.96 L591.1 328.66 L595.81 333.35 L600.44 337.97 L605.07 342.58 L609.68 347.18 L614.28 351.76 L618.86 356.33 L623.42 360.88 L627.88 365.32 L632.31 369.74 L636.74 374.14 L641.14 378.53 L645.53 382.89 L649.88 387.22 L654.08 391.4 L658.27 395.56 L662.44 399.7 L666.57 403.82 L670.68 407.91 L674.75 411.96 L678.62 415.82 L682.47 419.66 L686.3 423.48 L690.08 427.26 L693.82 431 L697.51 434.68 L700.89 438.05 L704.24 441.39 L707.55 444.68 L710.82 447.93 L714.05 451.15 L717.25 454.34 L720.23 457.31 L723.18 460.25 L726.11 463.16 L728.99 466.03 L731.83 468.85 L734.61 471.62 L737.1 474.09 L739.56 476.52 L741.97 478.92 L744.35 481.27 L746.68 483.58 L748.97 485.86 L751.01 487.89 L753.02 489.89 L754.99 491.86 L756.93 493.79 L758.84 495.69 L760.7 497.54 L762.33 499.17 L763.94 500.78 L765.51 502.35 L767.06 503.89 L768.57 505.4 L770.06 506.89 L771.36 508.18 L772.63 509.45 L773.89 510.69 L775.12 511.91 L776.32 513.11 L777.51 514.29 L778.57 515.33 L779.6 516.35 L780.62 517.36 L781.62 518.34 L782.6 519.31 L783.57 520.27 L784.41 521.11 L785.22 521.93 L786.01 522.73 L786.81 523.53 L787.64 524.37 L788.51 525.24 L789.66 526.4 L790.89 527.63 L792.16 528.89 L793.44 530.17 L794.69 531.41 L795.88 532.6 L796.88 533.59 L797.85 534.56 L798.8 535.51 L799.73 536.44 L800.65 537.36 L801.56 538.27 L802.44 539.14 L803.35 540.05 L804.25 540.95 L805.09 541.79 L805.82 542.52 L806.38 543.08 L806.56 543.26 L806.7 543.4 L806.83 543.53 L806.95 543.65 L807.07 543.77 L807.19 543.9 Z" fill="none" stroke="rgba(0,0,0,0.62)" stroke-width="1.4" stroke-linejoin="round"/>
<circle cx="345.79" cy="755.16" r="1.6" fill="#6a6a72"/>
<circle cx="331.95" cy="744.95" r="1.6" fill="#6a6a72"/>
<circle cx="305.31" cy="712.1" r="1.6" fill="#6a6a72"/>
<circle cx="278.42" cy="650.75" r="1.6" fill="#6a6a72"/>
<circle cx="240.83" cy="517.83" r="1.6" fill="#6a6a72"/>
<circle cx="210.34" cy="318.43" r="1.6" fill="#6a6a72"/>
<circle cx="215.01" cy="144.97" r="1.6" fill="#6a6a72"/>
<circle cx="264.51" cy="76.48" r="1.6" fill="#6a6a72"/>
<circle cx="391.73" cy="141.58" r="1.6" fill="#6a6a72"/>
<circle cx="509.25" cy="247.96" r="1.6" fill="#6a6a72"/>
<circle cx="623.42" cy="360.88" r="1.6" fill="#6a6a72"/>
<circle cx="717.25" cy="454.34" r="1.6" fill="#6a6a72"/>
<circle cx="770.06" cy="506.89" r="1.6" fill="#6a6a72"/>
<circle cx="805.43" cy="542.13" r="1.6" fill="#6a6a72"/>
<path d="M763.91 503.07 L384.67 64.85 L274.17 843 Z" fill="none" stroke="#8a4fff" stroke-width="1.8" stroke-linejoin="round"/>
<circle cx="763.91" cy="503.07" r="2.2" fill="#8a4fff" stroke="rgba(0,0,0,0.5)" stroke-width="1"/>
<circle cx="384.67" cy="64.85" r="2.2" fill="#8a4fff" stroke="rgba(0,0,0,0.5)" stroke-width="1"/>
<circle cx="274.17" cy="843" r="2.2" fill="#8a4fff" stroke="rgba(0,0,0,0.5)" stroke-width="1"/>
<path d="M459.78 487.37L462.38 489.97L459.78 492.57L457.18 489.97Z" fill="#8a4fff" stroke="#ffffff" stroke-width="1"/>
<path d="M842.8 510.24 L303.24 -464.28 L281.96 828.74 Z" fill="none" stroke="#22a7e0" stroke-width="1.8" stroke-linejoin="round"/>
<circle cx="842.8" cy="510.24" r="2.2" fill="#22a7e0" stroke="rgba(0,0,0,0.5)" stroke-width="1"/>
<circle cx="303.24" cy="-464.28" r="2.2" fill="#22a7e0" stroke="rgba(0,0,0,0.5)" stroke-width="1"/>
<circle cx="281.96" cy="828.74" r="2.2" fill="#22a7e0" stroke="rgba(0,0,0,0.5)" stroke-width="1"/>
<path d="M459.78 487.37L462.38 489.97L459.78 492.57L457.18 489.97Z" fill="#22a7e0" stroke="#ffffff" stroke-width="1"/>
<path d="M801.59 530.1 L318.32 59.12 L285.56 800.4 Z" fill="none" stroke="#3cb371" stroke-width="1.8" stroke-linejoin="round"/>
<circle cx="801.59" cy="530.1" r="2.2" fill="#3cb371" stroke="rgba(0,0,0,0.5)" stroke-width="1"/>
<circle cx="318.32" cy="59.12" r="2.2" fill="#3cb371" stroke="rgba(0,0,0,0.5)" stroke-width="1"/>
<circle cx="285.56" cy="800.4" r="2.2" fill="#3cb371" stroke="rgba(0,0,0,0.5)" stroke-width="1"/>
<path d="M459.78 487.37L462.38 489.97L459.78 492.57L457.18 489.97Z" fill="#3cb371" stroke="#ffffff" stroke-width="1"/>
<path d="M727.87 489.15 L449.38 267.99 L326.51 710.3 Z" fill="none" stroke="#f08c34" stroke-width="1.8" stroke-linejoin="round"/>
<circle cx="727.87" cy="489.15" r="2.2" fill="#f08c34" stroke="rgba(0,0,0,0.5)" stroke-width="1"/>
<circle cx="449.38" cy="267.99" r="2.2" fill="#f08c34" stroke="rgba(0,0,0,0.5)" stroke-width="1"/>
<circle cx="326.51" cy="710.3" r="2.2" fill="#f08c34" stroke="rgba(0,0,0,0.5)" stroke-width="1"/>
<path d="M459.78 487.37L462.38 489.97L459.78 492.57L457.18 489.97Z" fill="#f08c34" stroke="#ffffff" stroke-width="1"/>
<path d="M760.63 497.34 L420.71 194.27 L326.51 710.3 Z" fill="none" stroke="#e03131" stroke-width="1.8" stroke-linejoin="round"/>
<circle cx="760.63" cy="497.34" r="2.2" fill="#e03131" stroke="rgba(0,0,0,0.5)" stroke-width="1"/>
<circle cx="420.71" cy="194.27" r="2.2" fill="#e03131" stroke="rgba(0,0,0,0.5)" stroke-width="1"/>
<circle cx="326.51" cy="710.3" r="2.2" fill="#e03131" stroke="rgba(0,0,0,0.5)" stroke-width="1"/>
<path d="M460.84 469.34L463.44 471.94L460.84 474.54L458.24 471.94Z" fill="#e03131" stroke="#ffffff" stroke-width="1"/>
<text x="338.97" y="769.63" font-size="10" fill="#6a6a72" text-anchor="end" dominant-baseline="hanging">400</text>
<text x="321" y="756.62" font-size="10" fill="#6a6a72" text-anchor="end" dominant-baseline="hanging">450</text>
<text x="291.21" y="719.67" font-size="10" fill="#6a6a72" text-anchor="end" dominant-baseline="hanging">470</text>
<text x="263.42" y="656.3" font-size="10" fill="#6a6a72" text-anchor="end" dominant-baseline="hanging">480</text>
<text x="225.2" y="521.28" font-size="10" fill="#6a6a72" text-anchor="end" dominant-baseline="middle">490</text>
<text x="194.4" y="319.83" font-size="10" fill="#6a6a72" text-anchor="end" dominant-baseline="middle">500</text>
<text x="199.36" y="141.63" font-size="10" fill="#6a6a72" text-anchor="end" dominant-baseline="middle">510</text>
<text x="260.51" y="60.99" font-size="10" fill="#6a6a72" text-anchor="middle" dominant-baseline="auto">520</text>
<text x="401.54" y="128.94" font-size="10" fill="#6a6a72" text-anchor="start" dominant-baseline="auto">540</text>
<text x="520.39" y="236.47" font-size="10" fill="#6a6a72" text-anchor="start" dominant-baseline="auto">560</text>
<text x="634.72" y="349.55" font-size="10" fill="#6a6a72" text-anchor="start" dominant-baseline="auto">580</text>
<text x="728.54" y="443" font-size="10" fill="#6a6a72" text-anchor="start" dominant-baseline="auto">600</text>
<text x="781.35" y="495.55" font-size="10" fill="#6a6a72" text-anchor="start" dominant-baseline="auto">620</text>
<text x="816.75" y="530.82" font-size="10" fill="#6a6a72" text-anchor="start" dominant-baseline="auto">700</text>
</g>
<rect x="154.5" y="22.26" width="729" height="835.48" fill="none" stroke="rgba(0,0,0,0.30)" stroke-width="1"/>
<g font-family="ui-monospace, Menlo, monospace" font-size="10" fill="#6a6a72">
<line x1="203.65" y1="857.74" x2="203.65" y2="861.74" stroke="rgba(0,0,0,0.30)"/>
<text x="203.65" y="871.74" text-anchor="middle">0.00</text>
<line x1="285.56" y1="857.74" x2="285.56" y2="861.74" stroke="rgba(0,0,0,0.30)"/>
<text x="285.56" y="871.74" text-anchor="middle">0.10</text>
<line x1="367.47" y1="857.74" x2="367.47" y2="861.74" stroke="rgba(0,0,0,0.30)"/>
<text x="367.47" y="871.74" text-anchor="middle">0.20</text>
<line x1="449.38" y1="857.74" x2="449.38" y2="861.74" stroke="rgba(0,0,0,0.30)"/>
<text x="449.38" y="871.74" text-anchor="middle">0.30</text>
<line x1="531.29" y1="857.74" x2="531.29" y2="861.74" stroke="rgba(0,0,0,0.30)"/>
<text x="531.29" y="871.74" text-anchor="middle">0.40</text>
<line x1="613.2" y1="857.74" x2="613.2" y2="861.74" stroke="rgba(0,0,0,0.30)"/>
<text x="613.2" y="871.74" text-anchor="middle">0.50</text>
<line x1="695.11" y1="857.74" x2="695.11" y2="861.74" stroke="rgba(0,0,0,0.30)"/>
<text x="695.11" y="871.74" text-anchor="middle">0.60</text>
<line x1="777.02" y1="857.74" x2="777.02" y2="861.74" stroke="rgba(0,0,0,0.30)"/>
<text x="777.02" y="871.74" text-anchor="middle">0.70</text>
<line x1="858.93" y1="857.74" x2="858.93" y2="861.74" stroke="rgba(0,0,0,0.30)"/>
<text x="858.93" y="871.74" text-anchor="middle">0.80</text>
<line x1="150.5" y1="841.36" x2="154.5" y2="841.36" stroke="rgba(0,0,0,0.30)"/>
<text x="147.5" y="841.36" text-anchor="end" dominant-baseline="middle">-0.10</text>
<line x1="150.5" y1="759.45" x2="154.5" y2="759.45" stroke="rgba(0,0,0,0.30)"/>
<text x="147.5" y="759.45" text-anchor="end" dominant-baseline="middle">0.00</text>
<line x1="150.5" y1="677.54" x2="154.5" y2="677.54" stroke="rgba(0,0,0,0.30)"/>
<text x="147.5" y="677.54" text-anchor="end" dominant-baseline="middle">0.10</text>
<line x1="150.5" y1="595.63" x2="154.5" y2="595.63" stroke="rgba(0,0,0,0.30)"/>
<text x="147.5" y="595.63" text-anchor="end" dominant-baseline="middle">0.20</text>
<line x1="150.5" y1="513.72" x2="154.5" y2="513.72" stroke="rgba(0,0,0,0.30)"/>
<text x="147.5" y="513.72" text-anchor="end" dominant-baseline="middle">0.30</text>
<line x1="150.5" y1="431.81" x2="154.5" y2="431.81" stroke="rgba(0,0,0,0.30)"/>
<text x="147.5" y="431.81" text-anchor="end" dominant-baseline="middle">0.40</text>
<line x1="150.5" y1="349.9" x2="154.5" y2="349.9" stroke="rgba(0,0,0,0.30)"/>
<text x="147.5" y="349.9" text-anchor="end" dominant-baseline="middle">0.50</text>
<line x1="150.5" y1="267.99" x2="154.5" y2="267.99" stroke="rgba(0,0,0,0.30)"/>
<text x="147.5" y="267.99" text-anchor="end" dominant-baseline="middle">0.60</text>
<line x1="150.5" y1="186.08" x2="154.5" y2="186.08" stroke="rgba(0,0,0,0.30)"/>
<text x="147.5" y="186.08" text-anchor="end" dominant-baseline="middle">0.70</text>
<line x1="150.5" y1="104.17" x2="154.5" y2="104.17" stroke="rgba(0,0,0,0.30)"/>
<text x="147.5" y="104.17" text-anchor="end" dominant-baseline="middle">0.80</text>
<line x1="150.5" y1="22.26" x2="154.5" y2="22.26" stroke="rgba(0,0,0,0.30)"/>
<text x="147.5" y="22.26" text-anchor="end" dominant-baseline="middle">0.90</text>
</g>
<text x="519" y="879.74" text-anchor="middle" font-style="italic" font-size="11" fill="#6a6a72">x</text>
<text x="105.5" y="440" text-anchor="middle" font-style="italic" font-size="11" fill="#6a6a72" transform="rotate(-90 105.5 440)">y</text>
<g font-family="ui-sans-serif, system-ui, sans-serif">
<rect x="729.1" y="32.26" width="144.4" height="88" fill="#ffffff" fill-opacity="0.82" stroke="rgba(0,0,0,0.30)"/>
<line x1="737.1" y1="46.26" x2="753.1" y2="46.26" stroke="#8a4fff" stroke-width="2.4"/>
<text x="760.1" y="46.26" font-size="11" fill="#1c1c22" dominant-baseline="middle">ARRI Wide Gamut 3</text>
<line x1="737.1" y1="62.26" x2="753.1" y2="62.26" stroke="#22a7e0" stroke-width="2.4"/>
<text x="760.1" y="62.26" font-size="11" fill="#1c1c22" dominant-baseline="middle">REDWideGamutRGB</text>
<line x1="737.1" y1="78.26" x2="753.1" y2="78.26" stroke="#3cb371" stroke-width="2.4"/>
<text x="760.1" y="78.26" font-size="11" fill="#1c1c22" dominant-baseline="middle">Sony S-Gamut3</text>
<line x1="737.1" y1="94.26" x2="753.1" y2="94.26" stroke="#f08c34" stroke-width="2.4"/>
<text x="760.1" y="94.26" font-size="11" fill="#1c1c22" dominant-baseline="middle">Rec. 709</text>
<line x1="737.1" y1="110.26" x2="753.1" y2="110.26" stroke="#e03131" stroke-width="2.4"/>
<text x="760.1" y="110.26" font-size="11" fill="#1c1c22" dominant-baseline="middle">DCI-P3</text>
</g>
</svg>