<svg xmlns="http://www.w3.org/2000/svg" viewBox="0 0 1200 300" role="img" aria-labelledby="m-cdl-grading-operations-are-applied-prior-to-the-viewing-transform-title m-cdl-grading-operations-are-applied-prior-to-the-viewing-transform-desc" preserveAspectRatio="xMidYMid meet"><title id="m-cdl-grading-operations-are-applied-prior-to-the-viewing-transform-title">CDL grading operations are applied prior to the viewing transform</title><desc id="m-cdl-grading-operations-are-applied-prior-to-the-viewing-transform-desc">Ungraded Log Plate to ASC CDL to Show LUT to Rec.709 Preview.</desc><style>
  svg{display:block;width:100%;height:auto;font-family:var(--m-font,ui-sans-serif,-apple-system,BlinkMacSystemFont,"Segoe UI",sans-serif);color:var(--m-text);background:var(--m-surface);border:1px solid var(--m-line);border-radius:16px;box-shadow:var(--m-shadow)}
  text{fill:var(--m-text)} .muted{fill:var(--m-muted)} .subtle{fill:var(--m-subtle)}
  .label{font-size:15px;font-weight:650;letter-spacing:-.01em}.wf-label{font-size:13px;font-weight:650;letter-spacing:-.01em}.eyebrow{font-size:10px;font-weight:700;letter-spacing:.09em;text-transform:uppercase}.detail{font-size:11px}.mono{font-family:var(--m-mono,monospace);font-variant-numeric:tabular-nums}.keyline{stroke:var(--m-line)}
</style><defs><marker id="m-cdl-grading-operations-are-applied-prior-to-the-viewing-transform-arrow" viewBox="0 0 10 10" refX="8" refY="5" markerWidth="7" markerHeight="7" orient="auto-start-reverse"><path d="M1 1l8 4-8 4z" fill="var(--m-line-strong)"/></marker></defs><path d="M282 146H320.6666666666667" fill="none" stroke="var(--m-line-strong)" stroke-width="1.5" marker-end="url(#m-cdl-grading-operations-are-applied-prior-to-the-viewing-transform-arrow)"/><g role="group" aria-label="Ungraded Log Plate"><rect x="40" y="56" width="230" height="180" rx="14" fill="var(--m-surface-raised)" stroke="var(--m-line)"/><rect x="60" y="76" width="48" height="48" rx="12" fill="var(--m-green-soft)"/><g transform="translate(72 88) scale(1)" fill="none" stroke="currentColor" stroke-width="1.7" stroke-linecap="round" stroke-linejoin="round" aria-hidden="true"><rect x="3" y="5" width="18" height="14" rx="2"/><path d="m3 9 4-4 4 4 4-4 4 4M8 15l3-3 5 5"/></g><text x="60" y="149" class="eyebrow" fill="var(--m-green)">Source</text><text x="60" y="177" class="label">Ungraded Log Plate</text></g><path d="M578.6666666666667 146H617.3333333333334" fill="none" stroke="var(--m-line-strong)" stroke-width="1.5" marker-end="url(#m-cdl-grading-operations-are-applied-prior-to-the-viewing-transform-arrow)"/><g role="group" aria-label="ASC CDL"><rect x="336.6666666666667" y="56" width="230" height="180" rx="14" fill="var(--m-surface-raised)" stroke="var(--m-line)"/><rect x="356.6666666666667" y="76" width="48" height="48" rx="12" fill="var(--m-blue-soft)"/><g transform="translate(368.6666666666667 88) scale(1)" fill="none" stroke="currentColor" stroke-width="1.7" stroke-linecap="round" stroke-linejoin="round" aria-hidden="true"><circle cx="12" cy="12" r="8.5"/><path d="M12 3.5v17M3.5 12h17"/><circle cx="14.5" cy="9.5" r="2" fill="currentColor" stroke="none"/></g><text x="356.6666666666667" y="149" class="eyebrow" fill="var(--m-blue)">Primary correction</text><text x="356.6666666666667" y="177" class="label">ASC CDL</text></g><path d="M875.3333333333334 146H914" fill="none" stroke="var(--m-line-strong)" stroke-width="1.5" marker-end="url(#m-cdl-grading-operations-are-applied-prior-to-the-viewing-transform-arrow)"/><g role="group" aria-label="Show LUT"><rect x="633.3333333333334" y="56" width="230" height="180" rx="14" fill="var(--m-surface-raised)" stroke="var(--m-line)"/><rect x="653.3333333333334" y="76" width="48" height="48" rx="12" fill="var(--m-violet-soft)"/><g transform="translate(665.3333333333334 88) scale(1)" fill="none" stroke="currentColor" stroke-width="1.7" stroke-linecap="round" stroke-linejoin="round" aria-hidden="true"><path d="m12 3 8 4.5v9L12 21l-8-4.5v-9L12 3Z"/><path d="m4 7.5 8 4.5 8-4.5M12 12v9"/></g><text x="653.3333333333334" y="149" class="eyebrow" fill="var(--m-violet)">Display transform</text><text x="653.3333333333334" y="177" class="label">Show LUT</text><text x="653.3333333333334" y="201" class="detail muted">Display reference transform</text></g><g role="group" aria-label="Rec.709 Preview"><rect x="930" y="56" width="230" height="180" rx="14" fill="var(--m-surface-raised)" stroke="var(--m-line)"/><rect x="950" y="76" width="48" height="48" rx="12" fill="var(--m-violet-soft)"/><g transform="translate(962 88) scale(1)" fill="none" stroke="currentColor" stroke-width="1.7" stroke-linecap="round" stroke-linejoin="round" aria-hidden="true"><rect x="2.5" y="4" width="19" height="14" rx="2"/><path d="M8 21h8M12 18v3"/></g><text x="950" y="149" class="eyebrow" fill="var(--m-violet)">Viewing output</text><text x="950" y="177" class="label">Rec.709 Preview</text></g><text x="40" y="264" class="detail muted">Signal flow</text><path d="M108 260H1160" class="keyline"/></svg>