<svg xmlns="http://www.w3.org/2000/svg" viewBox="0 0 1200 676" role="img" aria-labelledby="m-reel-based-composition-of-a-feature-length-film-title m-reel-based-composition-of-a-feature-length-film-desc" preserveAspectRatio="xMidYMid meet"><title id="m-reel-based-composition-of-a-feature-length-film-title">Reel-based composition of a feature-length film</title><desc id="m-reel-based-composition-of-a-feature-length-film-desc">Seven reel timeline with eight-second head leaders and four-second tail leaders.</desc><style>
  svg{display:block;width:100%;height:auto;font-family:var(--m-font,ui-sans-serif,-apple-system,BlinkMacSystemFont,"Segoe UI",sans-serif);color:var(--m-text);background:var(--m-surface);border:1px solid var(--m-line);border-radius:16px;box-shadow:var(--m-shadow)}
  text{fill:var(--m-text)} .muted{fill:var(--m-muted)} .subtle{fill:var(--m-subtle)}
  .label{font-size:15px;font-weight:650;letter-spacing:-.01em}.wf-label{font-size:13px;font-weight:650;letter-spacing:-.01em}.eyebrow{font-size:10px;font-weight:700;letter-spacing:.09em;text-transform:uppercase}.detail{font-size:11px}.mono{font-family:var(--m-mono,monospace);font-variant-numeric:tabular-nums}.keyline{stroke:var(--m-line)}
</style><g role="group" aria-label="Reel 1, duration 00:18:22:06"><text x="40" y="51" class="label">Reel 1</text><text x="40" y="69" class="detail mono muted">00:18:22:06</text><path d="M148 26H204V66H148A8 8 0 0 1 140 58V34A8 8 0 0 1 148 26Z" fill="var(--m-sand-soft)" stroke="var(--m-sand)"/><rect x="204" y="26" width="838.7340002076771" height="40" fill="var(--m-blue-soft)" stroke="var(--m-blue)"/><path d="M1042.7340002076771 26H1074.7340002076771A8 8 0 0 1 1082.7340002076771 34V58A8 8 0 0 1 1074.7340002076771 66H1042.7340002076771Z" fill="var(--m-coral-soft)" stroke="var(--m-coral)"/><text x="172" y="51" text-anchor="middle" class="label" fill="var(--m-sand)">Head</text><text x="220" y="51" class="label">Program</text><text x="1062.7340002076771" y="51" text-anchor="middle" class="label" fill="var(--m-coral)">Tail</text><text x="140" y="19" class="detail mono muted">01:00:00:00</text><text x="204" y="83" class="detail mono muted">01:00:08:00</text><text x="1042.7340002076771" y="83" text-anchor="end" class="detail mono muted">01:18:30:06</text><text x="1082.7340002076771" y="19" text-anchor="end" class="detail mono muted">01:18:34:06</text></g><g role="group" aria-label="Reel 2, duration 00:19:41:15"><text x="40" y="151" class="label">Reel 2</text><text x="40" y="169" class="detail mono muted">00:19:41:15</text><path d="M148 126H204V166H148A8 8 0 0 1 140 158V134A8 8 0 0 1 148 126Z" fill="var(--m-sand-soft)" stroke="var(--m-sand)"/><rect x="204" y="126" width="899.1327402997473" height="40" fill="var(--m-green-soft)" stroke="var(--m-green)"/><path d="M1103.1327402997472 126H1135.1327402997472A8 8 0 0 1 1143.1327402997472 134V158A8 8 0 0 1 1135.1327402997472 166H1103.1327402997472Z" fill="var(--m-coral-soft)" stroke="var(--m-coral)"/><text x="172" y="151" text-anchor="middle" class="label" fill="var(--m-sand)">Head</text><text x="220" y="151" class="label">Program</text><text x="1123.1327402997472" y="151" text-anchor="middle" class="label" fill="var(--m-coral)">Tail</text><text x="140" y="119" class="detail mono muted">02:00:00:00</text><text x="204" y="183" class="detail mono muted">02:00:08:00</text><text x="1103.1327402997472" y="183" text-anchor="end" class="detail mono muted">02:19:49:15</text><text x="1143.1327402997472" y="119" text-anchor="end" class="detail mono muted">02:19:53:15</text></g><g role="group" aria-label="Reel 3, duration 00:17:55:11"><text x="40" y="251" class="label">Reel 3</text><text x="40" y="269" class="detail mono muted">00:17:55:11</text><path d="M148 226H204V266H148A8 8 0 0 1 140 258V234A8 8 0 0 1 148 226Z" fill="var(--m-sand-soft)" stroke="var(--m-sand)"/><rect x="204" y="226" width="818.3474438406424" height="40" fill="var(--m-blue-soft)" stroke="var(--m-blue)"/><path d="M1022.3474438406424 226H1054.3474438406424A8 8 0 0 1 1062.3474438406424 234V258A8 8 0 0 1 1054.3474438406424 266H1022.3474438406424Z" fill="var(--m-coral-soft)" stroke="var(--m-coral)"/><text x="172" y="251" text-anchor="middle" class="label" fill="var(--m-sand)">Head</text><text x="220" y="251" class="label">Program</text><text x="1042.3474438406424" y="251" text-anchor="middle" class="label" fill="var(--m-coral)">Tail</text><text x="140" y="219" class="detail mono muted">03:00:00:00</text><text x="204" y="283" class="detail mono muted">03:00:08:00</text><text x="1022.3474438406424" y="283" text-anchor="end" class="detail mono muted">03:18:03:11</text><text x="1062.3474438406424" y="219" text-anchor="end" class="detail mono muted">03:18:07:11</text></g><g role="group" aria-label="Reel 4, duration 00:20:03:19"><text x="40" y="351" class="label">Reel 4</text><text x="40" y="369" class="detail mono muted">00:20:03:19</text><path d="M148 326H204V366H148A8 8 0 0 1 140 358V334A8 8 0 0 1 148 326Z" fill="var(--m-sand-soft)" stroke="var(--m-sand)"/><rect x="204" y="326" width="916" height="40" fill="var(--m-green-soft)" stroke="var(--m-green)"/><path d="M1120 326H1152A8 8 0 0 1 1160 334V358A8 8 0 0 1 1152 366H1120Z" fill="var(--m-coral-soft)" stroke="var(--m-coral)"/><text x="172" y="351" text-anchor="middle" class="label" fill="var(--m-sand)">Head</text><text x="220" y="351" class="label">Program</text><text x="1140" y="351" text-anchor="middle" class="label" fill="var(--m-coral)">Tail</text><text x="140" y="319" class="detail mono muted">04:00:00:00</text><text x="204" y="383" class="detail mono muted">04:00:08:00</text><text x="1120" y="383" text-anchor="end" class="detail mono muted">04:20:11:19</text><text x="1160" y="319" text-anchor="end" class="detail mono muted">04:20:15:19</text></g><g role="group" aria-label="Reel 5, duration 00:16:48:02"><text x="40" y="451" class="label">Reel 5</text><text x="40" y="469" class="detail mono muted">00:16:48:02</text><path d="M148 426H204V466H148A8 8 0 0 1 140 458V434A8 8 0 0 1 148 426Z" fill="var(--m-sand-soft)" stroke="var(--m-sand)"/><rect x="204" y="426" width="767.0798518569798" height="40" fill="var(--m-blue-soft)" stroke="var(--m-blue)"/><path d="M971.0798518569798 426H1003.0798518569798A8 8 0 0 1 1011.0798518569798 434V458A8 8 0 0 1 1003.0798518569798 466H971.0798518569798Z" fill="var(--m-coral-soft)" stroke="var(--m-coral)"/><text x="172" y="451" text-anchor="middle" class="label" fill="var(--m-sand)">Head</text><text x="220" y="451" class="label">Program</text><text x="991.0798518569798" y="451" text-anchor="middle" class="label" fill="var(--m-coral)">Tail</text><text x="140" y="419" class="detail mono muted">05:00:00:00</text><text x="204" y="483" class="detail mono muted">05:00:08:00</text><text x="971.0798518569798" y="483" text-anchor="end" class="detail mono muted">05:16:56:02</text><text x="1011.0798518569798" y="419" text-anchor="end" class="detail mono muted">05:17:00:02</text></g><g role="group" aria-label="Reel 6, duration 00:12:37:20"><text x="40" y="551" class="label">Reel 6</text><text x="40" y="569" class="detail mono muted">00:12:37:20</text><path d="M148 526H204V566H148A8 8 0 0 1 140 558V534A8 8 0 0 1 148 526Z" fill="var(--m-sand-soft)" stroke="var(--m-sand)"/><rect x="204" y="526" width="640" height="40" fill="var(--m-green-soft)" stroke="var(--m-green)"/><path d="M844 526H876A8 8 0 0 1 884 534V558A8 8 0 0 1 876 566H844Z" fill="var(--m-coral-soft)" stroke="var(--m-coral)"/><text x="172" y="551" text-anchor="middle" class="label" fill="var(--m-sand)">Head</text><text x="220" y="551" class="label">Program</text><text x="864" y="551" text-anchor="middle" class="label" fill="var(--m-coral)">Tail</text><text x="140" y="519" class="detail mono muted">06:00:00:00</text><text x="204" y="583" class="detail mono muted">06:00:08:00</text><text x="844" y="583" text-anchor="end" class="detail mono muted">06:12:45:20</text><text x="884" y="519" text-anchor="end" class="detail mono muted">06:12:49:20</text></g><g transform="translate(140 651)"><rect width="8" height="8" rx="2" fill="var(--m-sand-soft)" stroke="var(--m-sand)"/><text x="15" y="8" class="detail muted">8 s head leader</text><rect x="120" width="8" height="8" rx="2" fill="var(--m-coral-soft)" stroke="var(--m-coral)"/><text x="135" y="8" class="detail muted">4 s tail leader · program lengths scaled to longest reel</text></g></svg>