<svg xmlns="http://www.w3.org/2000/svg" viewBox="0 0 1200 676" role="img" aria-labelledby="m-reel-based-composition-of-a-feature-length-film-title m-reel-based-composition-of-a-feature-length-film-desc" preserveAspectRatio="xMidYMid meet"><title id="m-reel-based-composition-of-a-feature-length-film-title">Reel-based composition of a feature-length film</title><desc id="m-reel-based-composition-of-a-feature-length-film-desc">Seven reel timeline with eight-second head leaders and four-second tail leaders.</desc><style>
  svg{display:block;width:100%;height:auto;font-family:var(--m-font,ui-sans-serif,-apple-system,BlinkMacSystemFont,"Segoe UI",sans-serif);color:var(--m-text);background:var(--m-surface);border:1px solid var(--m-line);border-radius:16px;box-shadow:var(--m-shadow)}
  text{fill:var(--m-text)} .muted{fill:var(--m-muted)} .subtle{fill:var(--m-subtle)}
  .label{font-size:15px;font-weight:650;letter-spacing:-.01em}.wf-label{font-size:13px;font-weight:650;letter-spacing:-.01em}.eyebrow{font-size:10px;font-weight:700;letter-spacing:.09em;text-transform:uppercase}.detail{font-size:11px}.mono{font-family:var(--m-mono,monospace);font-variant-numeric:tabular-nums}.keyline{stroke:var(--m-line)}
</style><g role="group" aria-label="Reel 1, duration 00:18:22:06"><text x="40" y="51" class="label">Reel 1</text><text x="40" y="69" class="detail mono muted">00:18:22:06</text><rect x="140" y="26" width="64" height="40" rx="8" fill="var(--m-sand-soft)" stroke="var(--m-sand)"/><rect x="204" y="26" width="838.7340002076771" height="40" fill="var(--m-blue-soft)" stroke="var(--m-blue)"/><rect x="1042.7340002076771" y="26" width="40" height="40" rx="8" fill="var(--m-coral-soft)" stroke="var(--m-coral)"/><text x="172" y="51" text-anchor="middle" class="eyebrow" fill="var(--m-sand)">HEAD</text><text x="220" y="51" class="label">Program</text><text x="1062.7340002076771" y="51" text-anchor="middle" class="eyebrow" fill="var(--m-coral)">TAIL</text><text x="140" y="19" class="detail mono muted">01:00:00:00</text><text x="204" y="83" class="detail mono muted">01:00:08:00</text><text x="1042.7340002076771" y="83" text-anchor="end" class="detail mono muted">01:18:30:06</text><text x="1082.7340002076771" y="19" text-anchor="end" class="detail mono muted">01:18:34:06</text></g><g role="group" aria-label="Reel 2, duration 00:19:41:15"><text x="40" y="151" class="label">Reel 2</text><text x="40" y="169" class="detail mono muted">00:19:41:15</text><rect x="140" y="126" width="64" height="40" rx="8" fill="var(--m-sand-soft)" stroke="var(--m-sand)"/><rect x="204" y="126" width="899.1327402997473" height="40" fill="var(--m-green-soft)" stroke="var(--m-green)"/><rect x="1103.1327402997472" y="126" width="40" height="40" rx="8" fill="var(--m-coral-soft)" stroke="var(--m-coral)"/><text x="172" y="151" text-anchor="middle" class="eyebrow" fill="var(--m-sand)">HEAD</text><text x="220" y="151" class="label">Program</text><text x="1123.1327402997472" y="151" text-anchor="middle" class="eyebrow" fill="var(--m-coral)">TAIL</text><text x="140" y="119" class="detail mono muted">02:00:00:00</text><text x="204" y="183" class="detail mono muted">02:00:08:00</text><text x="1103.1327402997472" y="183" text-anchor="end" class="detail mono muted">02:19:49:15</text><text x="1143.1327402997472" y="119" text-anchor="end" class="detail mono muted">02:19:53:15</text></g><g role="group" aria-label="Reel 3, duration 00:17:55:11"><text x="40" y="251" class="label">Reel 3</text><text x="40" y="269" class="detail mono muted">00:17:55:11</text><rect x="140" y="226" width="64" height="40" rx="8" fill="var(--m-sand-soft)" stroke="var(--m-sand)"/><rect x="204" y="226" width="818.3474438406424" height="40" fill="var(--m-blue-soft)" stroke="var(--m-blue)"/><rect x="1022.3474438406424" y="226" width="40" height="40" rx="8" fill="var(--m-coral-soft)" stroke="var(--m-coral)"/><text x="172" y="251" text-anchor="middle" class="eyebrow" fill="var(--m-sand)">HEAD</text><text x="220" y="251" class="label">Program</text><text x="1042.3474438406424" y="251" text-anchor="middle" class="eyebrow" fill="var(--m-coral)">TAIL</text><text x="140" y="219" class="detail mono muted">03:00:00:00</text><text x="204" y="283" class="detail mono muted">03:00:08:00</text><text x="1022.3474438406424" y="283" text-anchor="end" class="detail mono muted">03:18:03:11</text><text x="1062.3474438406424" y="219" text-anchor="end" class="detail mono muted">03:18:07:11</text></g><g role="group" aria-label="Reel 4, duration 00:20:03:19"><text x="40" y="351" class="label">Reel 4</text><text x="40" y="369" class="detail mono muted">00:20:03:19</text><rect x="140" y="326" width="64" height="40" rx="8" fill="var(--m-sand-soft)" stroke="var(--m-sand)"/><rect x="204" y="326" width="916" height="40" fill="var(--m-green-soft)" stroke="var(--m-green)"/><rect x="1120" y="326" width="40" height="40" rx="8" fill="var(--m-coral-soft)" stroke="var(--m-coral)"/><text x="172" y="351" text-anchor="middle" class="eyebrow" fill="var(--m-sand)">HEAD</text><text x="220" y="351" class="label">Program</text><text x="1140" y="351" text-anchor="middle" class="eyebrow" fill="var(--m-coral)">TAIL</text><text x="140" y="319" class="detail mono muted">04:00:00:00</text><text x="204" y="383" class="detail mono muted">04:00:08:00</text><text x="1120" y="383" text-anchor="end" class="detail mono muted">04:20:11:19</text><text x="1160" y="319" text-anchor="end" class="detail mono muted">04:20:15:19</text></g><g role="group" aria-label="Reel 5, duration 00:16:48:02"><text x="40" y="451" class="label">Reel 5</text><text x="40" y="469" class="detail mono muted">00:16:48:02</text><rect x="140" y="426" width="64" height="40" rx="8" fill="var(--m-sand-soft)" stroke="var(--m-sand)"/><rect x="204" y="426" width="767.0798518569798" height="40" fill="var(--m-blue-soft)" stroke="var(--m-blue)"/><rect x="971.0798518569798" y="426" width="40" height="40" rx="8" fill="var(--m-coral-soft)" stroke="var(--m-coral)"/><text x="172" y="451" text-anchor="middle" class="eyebrow" fill="var(--m-sand)">HEAD</text><text x="220" y="451" class="label">Program</text><text x="991.0798518569798" y="451" text-anchor="middle" class="eyebrow" fill="var(--m-coral)">TAIL</text><text x="140" y="419" class="detail mono muted">05:00:00:00</text><text x="204" y="483" class="detail mono muted">05:00:08:00</text><text x="971.0798518569798" y="483" text-anchor="end" class="detail mono muted">05:16:56:02</text><text x="1011.0798518569798" y="419" text-anchor="end" class="detail mono muted">05:17:00:02</text></g><g role="group" aria-label="Reel 6, duration 00:12:37:20"><text x="40" y="551" class="label">Reel 6</text><text x="40" y="569" class="detail mono muted">00:12:37:20</text><rect x="140" y="526" width="64" height="40" rx="8" fill="var(--m-sand-soft)" stroke="var(--m-sand)"/><rect x="204" y="526" width="640" height="40" fill="var(--m-green-soft)" stroke="var(--m-green)"/><rect x="844" y="526" width="40" height="40" rx="8" fill="var(--m-coral-soft)" stroke="var(--m-coral)"/><text x="172" y="551" text-anchor="middle" class="eyebrow" fill="var(--m-sand)">HEAD</text><text x="220" y="551" class="label">Program</text><text x="864" y="551" text-anchor="middle" class="eyebrow" fill="var(--m-coral)">TAIL</text><text x="140" y="519" class="detail mono muted">06:00:00:00</text><text x="204" y="583" class="detail mono muted">06:00:08:00</text><text x="844" y="583" text-anchor="end" class="detail mono muted">06:12:45:20</text><text x="884" y="519" text-anchor="end" class="detail mono muted">06:12:49:20</text></g><g transform="translate(140 651)"><rect width="8" height="8" rx="2" fill="var(--m-sand-soft)" stroke="var(--m-sand)"/><text x="15" y="8" class="detail muted">8 s head leader</text><rect x="120" width="8" height="8" rx="2" fill="var(--m-coral-soft)" stroke="var(--m-coral)"/><text x="135" y="8" class="detail muted">4 s tail leader · program lengths scaled to longest reel</text></g></svg>