<svg xmlns="http://www.w3.org/2000/svg" viewBox="0 0 1200 600" role="img" aria-labelledby="m-generalized-production-workflow-pre-production-through-acquisition-editorial-and-the-digital-intermediate-to-deliverables-with-visual-effects-as-a-tangent-off-editorial-title m-generalized-production-workflow-pre-production-through-acquisition-editorial-and-the-digital-intermediate-to-deliverables-with-visual-effects-as-a-tangent-off-editorial-desc" preserveAspectRatio="xMidYMid meet"><title id="m-generalized-production-workflow-pre-production-through-acquisition-editorial-and-the-digital-intermediate-to-deliverables-with-visual-effects-as-a-tangent-off-editorial-title">Generalized production workflow: pre-production through acquisition, editorial, and the digital intermediate to deliverables, with visual effects as a tangent off editorial</title><desc id="m-generalized-production-workflow-pre-production-through-acquisition-editorial-and-the-digital-intermediate-to-deliverables-with-visual-effects-as-a-tangent-off-editorial-desc">A left-to-right post-production workflow with supporting inputs, a compositing branch, and multiple delivery outputs.</desc><style>
  svg{display:block;width:100%;height:auto;font-family:var(--m-font,ui-sans-serif,-apple-system,BlinkMacSystemFont,"Segoe UI",sans-serif);color:var(--m-text);background:var(--m-surface);border:1px solid var(--m-line);border-radius:16px;box-shadow:var(--m-shadow)}
  text{fill:var(--m-text)} .muted{fill:var(--m-muted)} .subtle{fill:var(--m-subtle)}
  .label{font-size:15px;font-weight:650;letter-spacing:-.01em}.wf-label{font-size:13px;font-weight:650;letter-spacing:-.01em}.eyebrow{font-size:10px;font-weight:700;letter-spacing:.09em;text-transform:uppercase}.detail{font-size:11px}.mono{font-family:var(--m-mono,monospace);font-variant-numeric:tabular-nums}.keyline{stroke:var(--m-line)}
</style><defs><marker id="m-generalized-production-workflow-pre-production-through-acquisition-editorial-and-the-digital-intermediate-to-deliverables-with-visual-effects-as-a-tangent-off-editorial-arrow" viewBox="0 0 10 10" refX="8" refY="5" markerWidth="6" markerHeight="6" orient="auto"><path d="M1 1l8 4-8 4z" fill="var(--m-line-strong)"/></marker></defs><rect x="802" y="44" width="354" height="500" rx="16" fill="var(--m-surface-raised)" stroke="var(--m-line)" stroke-dasharray="4 4"/><text x="826" y="72" class="eyebrow muted">DELIVERABLES</text><path d="M200 296H236" fill="none" stroke="var(--m-line-strong)" stroke-width="1.5" marker-end="url(#m-generalized-production-workflow-pre-production-through-acquisition-editorial-and-the-digital-intermediate-to-deliverables-with-visual-effects-as-a-tangent-off-editorial-arrow)"/><path d="M392 296H428" fill="none" stroke="var(--m-line-strong)" stroke-width="1.5" marker-end="url(#m-generalized-production-workflow-pre-production-through-acquisition-editorial-and-the-digital-intermediate-to-deliverables-with-visual-effects-as-a-tangent-off-editorial-arrow)"/><path d="M584 296H598V104H620" fill="none" stroke="var(--m-line-strong)" stroke-width="1.5" marker-end="url(#m-generalized-production-workflow-pre-production-through-acquisition-editorial-and-the-digital-intermediate-to-deliverables-with-visual-effects-as-a-tangent-off-editorial-arrow)"/><path d="M584 296H620" fill="none" stroke="var(--m-line-strong)" stroke-width="1.5" marker-end="url(#m-generalized-production-workflow-pre-production-through-acquisition-editorial-and-the-digital-intermediate-to-deliverables-with-visual-effects-as-a-tangent-off-editorial-arrow)"/><path d="M776 296H790V200H812" fill="none" stroke="var(--m-line-strong)" stroke-width="1.5" marker-end="url(#m-generalized-production-workflow-pre-production-through-acquisition-editorial-and-the-digital-intermediate-to-deliverables-with-visual-effects-as-a-tangent-off-editorial-arrow)"/><path d="M776 296H812" fill="none" stroke="var(--m-line-strong)" stroke-width="1.5" marker-end="url(#m-generalized-production-workflow-pre-production-through-acquisition-editorial-and-the-digital-intermediate-to-deliverables-with-visual-effects-as-a-tangent-off-editorial-arrow)"/><path d="M776 296H790V392H812" fill="none" stroke="var(--m-line-strong)" stroke-width="1.5" marker-end="url(#m-generalized-production-workflow-pre-production-through-acquisition-editorial-and-the-digital-intermediate-to-deliverables-with-visual-effects-as-a-tangent-off-editorial-arrow)"/><g role="group" aria-label="Pre-Production"><rect x="44" y="264" width="156" height="64" rx="12" fill="var(--m-green-soft)" stroke="var(--m-green)"/><g color="var(--m-green)"><g transform="translate(60 284) scale(1)" fill="none" stroke="currentColor" stroke-width="1.7" stroke-linecap="round" stroke-linejoin="round" aria-hidden="true"><path d="M3 7h18M3 17h18M7 4v6M17 14v6"/><rect x="8" y="12" width="7" height="3" rx="1"/></g></g><text class="wf-label"><tspan x="94" y="301">Pre-Production</tspan></text></g><g role="group" aria-label="Production"><rect x="236" y="264" width="156" height="64" rx="12" fill="var(--m-green-soft)" stroke="var(--m-green)"/><g color="var(--m-green)"><g transform="translate(252 284) scale(1)" fill="none" stroke="currentColor" stroke-width="1.7" stroke-linecap="round" stroke-linejoin="round" aria-hidden="true"><path d="M3 7h4l1.5-2h7L17 7h4v12H3z"/><circle cx="12" cy="13" r="4"/></g></g><text class="wf-label"><tspan x="286" y="301">Production</tspan></text></g><g role="group" aria-label="Editorial"><rect x="428" y="264" width="156" height="64" rx="12" fill="var(--m-blue-soft)" stroke="var(--m-blue)"/><g color="var(--m-blue)"><g transform="translate(444 284) scale(1)" fill="none" stroke="currentColor" stroke-width="1.7" stroke-linecap="round" stroke-linejoin="round" aria-hidden="true"><circle cx="12" cy="12" r="9"/><path d="m12 5 2.2 4.2 4.8.7-3.5 3.4.8 4.7-4.3-2.2L7.7 18l.8-4.7L5 9.9l4.8-.7L12 5Z"/></g></g><text class="wf-label"><tspan x="478" y="301">Editorial</tspan></text></g><g role="group" aria-label="Visual Effects"><rect x="620" y="72" width="156" height="64" rx="12" fill="var(--m-green-soft)" stroke="var(--m-green)"/><g color="var(--m-green)"><g transform="translate(636 92) scale(1)" fill="none" stroke="currentColor" stroke-width="1.7" stroke-linecap="round" stroke-linejoin="round" aria-hidden="true"><rect x="3" y="5" width="18" height="14" rx="2"/><path d="m3 9 4-4 4 4 4-4 4 4M8 15l3-3 5 5"/></g></g><text class="wf-label"><tspan x="670" y="100">Visual</tspan><tspan x="670" y="118">Effects</tspan></text></g><g role="group" aria-label="Digital Intermediate"><rect x="620" y="264" width="156" height="64" rx="12" fill="var(--m-violet-soft)" stroke="var(--m-violet)"/><g color="var(--m-violet)"><g transform="translate(636 284) scale(1)" fill="none" stroke="currentColor" stroke-width="1.7" stroke-linecap="round" stroke-linejoin="round" aria-hidden="true"><circle cx="12" cy="12" r="9"/><path d="m12 5 2.2 4.2 4.8.7-3.5 3.4.8 4.7-4.3-2.2L7.7 18l.8-4.7L5 9.9l4.8-.7L12 5Z"/></g></g><text class="wf-label"><tspan x="670" y="292">Digital</tspan><tspan x="670" y="310">Intermediate</tspan></text></g><g role="group" aria-label="DCP"><rect x="812" y="168" width="156" height="64" rx="12" fill="var(--m-coral-soft)" stroke="var(--m-coral)"/><g color="var(--m-coral)"><g transform="translate(828 188) scale(1)" fill="none" stroke="currentColor" stroke-width="1.7" stroke-linecap="round" stroke-linejoin="round" aria-hidden="true"><path d="M4 5h16v14H4zM8 5v14M16 5v14M4 9h4M16 9h4M4 15h4M16 15h4"/></g></g><text class="wf-label"><tspan x="862" y="205">DCP</tspan></text></g><g role="group" aria-label="Video Masters"><rect x="812" y="264" width="156" height="64" rx="12" fill="var(--m-coral-soft)" stroke="var(--m-coral)"/><g color="var(--m-coral)"><g transform="translate(828 284) scale(1)" fill="none" stroke="currentColor" stroke-width="1.7" stroke-linecap="round" stroke-linejoin="round" aria-hidden="true"><rect x="2.5" y="4" width="19" height="14" rx="2"/><path d="M8 21h8M12 18v3"/></g></g><text class="wf-label"><tspan x="862" y="301">Video Masters</tspan></text></g><g role="group" aria-label="Archival"><rect x="812" y="360" width="156" height="64" rx="12" fill="var(--m-coral-soft)" stroke="var(--m-coral)"/><g color="var(--m-coral)"><g transform="translate(828 380) scale(1)" fill="none" stroke="currentColor" stroke-width="1.7" stroke-linecap="round" stroke-linejoin="round" aria-hidden="true"><ellipse cx="12" cy="5" rx="8" ry="3"/><path d="M4 5v7c0 1.7 3.6 3 8 3s8-1.3 8-3V5M4 12v7c0 1.7 3.6 3 8 3s8-1.3 8-3v-7"/></g></g><text class="wf-label"><tspan x="862" y="397">Archival</tspan></text></g><text x="44" y="570" class="detail muted">Primary image path</text><path d="M154 566H760" class="keyline"/><text x="826" y="570" class="detail muted">Output branches</text></svg>