<svg xmlns="http://www.w3.org/2000/svg" viewBox="0 0 816 360" role="img" aria-labelledby="m-filmlight-truelight-color-spaces-source-clips-are-assigned-a-truelight-input-mapped-into-the-e-gamut-t-log-working-space-then-rendered-through-the-t-cam-display-transform-to-each-display-deliverable-title m-filmlight-truelight-color-spaces-source-clips-are-assigned-a-truelight-input-mapped-into-the-e-gamut-t-log-working-space-then-rendered-through-the-t-cam-display-transform-to-each-display-deliverable-desc" preserveAspectRatio="xMidYMid meet"><title id="m-filmlight-truelight-color-spaces-source-clips-are-assigned-a-truelight-input-mapped-into-the-e-gamut-t-log-working-space-then-rendered-through-the-t-cam-display-transform-to-each-display-deliverable-title">FilmLight Truelight Color Spaces: source clips are assigned a Truelight input, mapped into the E-Gamut / T-Log working space, then rendered through the T-CAM display transform to each display deliverable</title><desc id="m-filmlight-truelight-color-spaces-source-clips-are-assigned-a-truelight-input-mapped-into-the-e-gamut-t-log-working-space-then-rendered-through-the-t-cam-display-transform-to-each-display-deliverable-desc">A left-to-right post-production workflow with supporting inputs, a compositing branch, and multiple delivery outputs.</desc><style>
  svg{display:block;width:100%;height:auto;font-family:var(--m-font,ui-sans-serif,-apple-system,BlinkMacSystemFont,"Segoe UI",sans-serif);color:var(--m-text);background:var(--m-surface);border:1px solid var(--m-line);border-radius:16px;box-shadow:var(--m-shadow)}
  text{fill:var(--m-text)} .muted{fill:var(--m-muted)} .subtle{fill:var(--m-subtle)}
  .label{font-size:15px;font-weight:650;letter-spacing:-.01em}.wf-label{font-size:13px;font-weight:650;letter-spacing:-.01em}.eyebrow{font-size:10px;font-weight:700;letter-spacing:.09em;text-transform:uppercase}.detail{font-size:11px}.mono{font-family:var(--m-mono,monospace);font-variant-numeric:tabular-nums}.keyline{stroke:var(--m-line)}
</style><defs><marker id="m-filmlight-truelight-color-spaces-source-clips-are-assigned-a-truelight-input-mapped-into-the-e-gamut-t-log-working-space-then-rendered-through-the-t-cam-display-transform-to-each-display-deliverable-arrow" viewBox="0 0 10 10" refX="8" refY="5" markerWidth="6" markerHeight="6" orient="auto"><path d="M1 1l8 4-8 4z" fill="var(--m-line-strong)"/></marker></defs><rect x="568" y="22" width="232" height="322" rx="16" fill="var(--m-surface-raised)" stroke="var(--m-line)" stroke-dasharray="4 4"/><text x="592" y="44" class="eyebrow muted">DELIVERABLES</text><path d="M200 192H236" fill="none" stroke="var(--m-line-strong)" stroke-width="1.5" marker-end="url(#m-filmlight-truelight-color-spaces-source-clips-are-assigned-a-truelight-input-mapped-into-the-e-gamut-t-log-working-space-then-rendered-through-the-t-cam-display-transform-to-each-display-deliverable-arrow)"/><path d="M392 192H588Q598 192 598 182V106Q598 96 608 96H620" fill="none" stroke="var(--m-line-strong)" stroke-width="1.5" marker-end="url(#m-filmlight-truelight-color-spaces-source-clips-are-assigned-a-truelight-input-mapped-into-the-e-gamut-t-log-working-space-then-rendered-through-the-t-cam-display-transform-to-each-display-deliverable-arrow)"/><path d="M392 192H620" fill="none" stroke="var(--m-line-strong)" stroke-width="1.5" marker-end="url(#m-filmlight-truelight-color-spaces-source-clips-are-assigned-a-truelight-input-mapped-into-the-e-gamut-t-log-working-space-then-rendered-through-the-t-cam-display-transform-to-each-display-deliverable-arrow)"/><path d="M392 192H588Q598 192 598 202V278Q598 288 608 288H620" fill="none" stroke="var(--m-line-strong)" stroke-width="1.5" marker-end="url(#m-filmlight-truelight-color-spaces-source-clips-are-assigned-a-truelight-input-mapped-into-the-e-gamut-t-log-working-space-then-rendered-through-the-t-cam-display-transform-to-each-display-deliverable-arrow)"/><g role="group" aria-label="Source Clips"><rect x="44" y="160" width="156" height="64" rx="12" fill="var(--m-green-soft)" stroke="var(--m-green)"/><g color="var(--m-green)"><g transform="translate(60 180) scale(1)" fill="none" stroke="currentColor" stroke-width="1.7" stroke-linecap="round" stroke-linejoin="round" aria-hidden="true"><path d="M23 19a2 2 0 0 1-2 2H3a2 2 0 0 1-2-2V8a2 2 0 0 1 2-2h4l2-3h6l2 3h4a2 2 0 0 1 2 2z"/><circle cx="12" cy="13" r="4"/></g></g><text class="wf-label"><tspan x="94" y="197">Source Clips</tspan></text></g><g role="group" aria-label="E-Gamut / T-Log"><rect x="236" y="160" width="156" height="64" rx="12" fill="var(--m-blue-soft)" stroke="var(--m-blue)"/><g color="var(--m-blue)"><g transform="translate(252 180) scale(1)" fill="none" stroke="currentColor" stroke-width="1.7" stroke-linecap="round" stroke-linejoin="round" aria-hidden="true"><circle cx="13.5" cy="6.5" r=".6" fill="currentColor" stroke="none"/><circle cx="17.5" cy="10.5" r=".6" fill="currentColor" stroke="none"/><circle cx="8.5" cy="7.5" r=".6" fill="currentColor" stroke="none"/><circle cx="6.5" cy="12.5" r=".6" fill="currentColor" stroke="none"/><path d="M12 2C6.5 2 2 6.5 2 12s4.5 10 10 10c.926 0 1.648-.746 1.648-1.688 0-.437-.18-.835-.437-1.125-.29-.289-.438-.652-.438-1.125a1.64 1.64 0 0 1 1.668-1.668h1.996c3.051 0 5.555-2.503 5.555-5.554C21.965 6.012 17.461 2 12 2z"/></g></g><text class="wf-label"><tspan x="286" y="188">E-Gamut</tspan><tspan x="286" y="206">/ T-Log</tspan></text></g><g role="group" aria-label="Rec.709"><rect x="620" y="64" width="156" height="64" rx="12" fill="var(--m-coral-soft)" stroke="var(--m-coral)"/><g color="var(--m-coral)"><g transform="translate(636 84) scale(1)" fill="none" stroke="currentColor" stroke-width="1.7" stroke-linecap="round" stroke-linejoin="round" aria-hidden="true"><rect x="2" y="3" width="20" height="14" rx="2" ry="2"/><line x1="8" y1="21" x2="16" y2="21"/><line x1="12" y1="17" x2="12" y2="21"/></g></g><text class="wf-label"><tspan x="670" y="101">Rec.709</tspan></text></g><g role="group" aria-label="P3-D65"><rect x="620" y="160" width="156" height="64" rx="12" fill="var(--m-coral-soft)" stroke="var(--m-coral)"/><g color="var(--m-coral)"><g transform="translate(636 180) scale(1)" fill="none" stroke="currentColor" stroke-width="1.7" stroke-linecap="round" stroke-linejoin="round" aria-hidden="true"><rect x="2" y="3" width="20" height="14" rx="2" ry="2"/><line x1="8" y1="21" x2="16" y2="21"/><line x1="12" y1="17" x2="12" y2="21"/></g></g><text class="wf-label"><tspan x="670" y="197">P3-D65</tspan></text></g><g role="group" aria-label="Rec.2100"><rect x="620" y="256" width="156" height="64" rx="12" fill="var(--m-coral-soft)" stroke="var(--m-coral)"/><g color="var(--m-coral)"><g transform="translate(636 276) scale(1)" fill="none" stroke="currentColor" stroke-width="1.7" stroke-linecap="round" stroke-linejoin="round" aria-hidden="true"><circle cx="12" cy="12" r="5"/><line x1="12" y1="1" x2="12" y2="3"/><line x1="12" y1="21" x2="12" y2="23"/><line x1="4.22" y1="4.22" x2="5.64" y2="5.64"/><line x1="18.36" y1="18.36" x2="19.78" y2="19.78"/><line x1="1" y1="12" x2="3" y2="12"/><line x1="21" y1="12" x2="23" y2="12"/><line x1="4.22" y1="19.78" x2="5.64" y2="18.36"/><line x1="18.36" y1="5.64" x2="19.78" y2="4.22"/></g></g><text class="wf-label"><tspan x="670" y="293">Rec.2100</tspan></text></g></svg>