<svg xmlns="http://www.w3.org/2000/svg" viewBox="0 0 1200 300" role="img" aria-labelledby="m-cdl-grading-operations-are-applied-prior-to-the-viewing-transform-title m-cdl-grading-operations-are-applied-prior-to-the-viewing-transform-desc" preserveAspectRatio="xMidYMid meet"><title id="m-cdl-grading-operations-are-applied-prior-to-the-viewing-transform-title">CDL grading operations are applied prior to the viewing transform</title><desc id="m-cdl-grading-operations-are-applied-prior-to-the-viewing-transform-desc">Ungraded Log Plate to ASC CDL to Show LUT to Rec.709 Preview.</desc><style>
  svg{display:block;width:100%;height:auto;font-family:var(--m-font,ui-sans-serif,-apple-system,BlinkMacSystemFont,"Segoe UI",sans-serif);color:var(--m-text);background:var(--m-surface);border:1px solid var(--m-line);border-radius:16px;box-shadow:var(--m-shadow)}
  text{fill:var(--m-text)} .muted{fill:var(--m-muted)} .subtle{fill:var(--m-subtle)}
  .label{font-size:15px;font-weight:650;letter-spacing:-.01em}.wf-label{font-size:13px;font-weight:650;letter-spacing:-.01em}.eyebrow{font-size:10px;font-weight:700;letter-spacing:.09em;text-transform:uppercase}.detail{font-size:11px}.mono{font-family:var(--m-mono,monospace);font-variant-numeric:tabular-nums}.keyline{stroke:var(--m-line)}
</style><defs><marker id="m-cdl-grading-operations-are-applied-prior-to-the-viewing-transform-arrow" viewBox="0 0 10 10" refX="8" refY="5" markerWidth="7" markerHeight="7" orient="auto-start-reverse"><path d="M1 1l8 4-8 4z" fill="var(--m-line-strong)"/></marker></defs><path d="M282 146H320.6666666666667" fill="none" stroke="var(--m-line-strong)" stroke-width="1.5" marker-end="url(#m-cdl-grading-operations-are-applied-prior-to-the-viewing-transform-arrow)"/><g role="group" aria-label="Ungraded Log Plate"><rect x="40" y="56" width="230" height="180" rx="14" fill="var(--m-surface-raised)" stroke="var(--m-line)"/><rect x="60" y="76" width="48" height="48" rx="12" fill="var(--m-green-soft)"/><g transform="translate(72 88) scale(1)" fill="none" stroke="currentColor" stroke-width="1.7" stroke-linecap="round" stroke-linejoin="round" aria-hidden="true"><rect x="3" y="3" width="18" height="18" rx="2" ry="2"/><circle cx="8.5" cy="8.5" r="1.5"/><polyline points="21 15 16 10 5 21"/></g><text x="60" y="149" class="eyebrow" fill="var(--m-green)">Source</text><text x="60" y="177" class="label">Ungraded Log Plate</text></g><path d="M578.6666666666667 146H617.3333333333334" fill="none" stroke="var(--m-line-strong)" stroke-width="1.5" marker-end="url(#m-cdl-grading-operations-are-applied-prior-to-the-viewing-transform-arrow)"/><g role="group" aria-label="ASC CDL"><rect x="336.6666666666667" y="56" width="230" height="180" rx="14" fill="var(--m-surface-raised)" stroke="var(--m-line)"/><rect x="356.6666666666667" y="76" width="48" height="48" rx="12" fill="var(--m-blue-soft)"/><g transform="translate(368.6666666666667 88) scale(1)" fill="none" stroke="currentColor" stroke-width="1.7" stroke-linecap="round" stroke-linejoin="round" aria-hidden="true"><line x1="4" y1="21" x2="4" y2="14"/><line x1="4" y1="10" x2="4" y2="3"/><line x1="12" y1="21" x2="12" y2="12"/><line x1="12" y1="8" x2="12" y2="3"/><line x1="20" y1="21" x2="20" y2="16"/><line x1="20" y1="12" x2="20" y2="3"/><line x1="1" y1="14" x2="7" y2="14"/><line x1="9" y1="8" x2="15" y2="8"/><line x1="17" y1="16" x2="23" y2="16"/></g><text x="356.6666666666667" y="149" class="eyebrow" fill="var(--m-blue)">Primary correction</text><text x="356.6666666666667" y="177" class="label">ASC CDL</text></g><path d="M875.3333333333334 146H914" fill="none" stroke="var(--m-line-strong)" stroke-width="1.5" marker-end="url(#m-cdl-grading-operations-are-applied-prior-to-the-viewing-transform-arrow)"/><g role="group" aria-label="Show LUT"><rect x="633.3333333333334" y="56" width="230" height="180" rx="14" fill="var(--m-surface-raised)" stroke="var(--m-line)"/><rect x="653.3333333333334" y="76" width="48" height="48" rx="12" fill="var(--m-violet-soft)"/><g transform="translate(665.3333333333334 88) scale(1)" fill="none" stroke="currentColor" stroke-width="1.7" stroke-linecap="round" stroke-linejoin="round" aria-hidden="true"><path d="M21 16V8a2 2 0 0 0-1-1.73l-7-4a2 2 0 0 0-2 0l-7 4A2 2 0 0 0 3 8v8a2 2 0 0 0 1 1.73l7 4a2 2 0 0 0 2 0l7-4A2 2 0 0 0 21 16z"/><polyline points="3.27 6.96 12 12.01 20.73 6.96"/><line x1="12" y1="22.08" x2="12" y2="12"/></g><text x="653.3333333333334" y="149" class="eyebrow" fill="var(--m-violet)">Display transform</text><text x="653.3333333333334" y="177" class="label">Show LUT</text><text x="653.3333333333334" y="201" class="detail muted">Display reference transform</text></g><g role="group" aria-label="Rec.709 Preview"><rect x="930" y="56" width="230" height="180" rx="14" fill="var(--m-surface-raised)" stroke="var(--m-line)"/><rect x="950" y="76" width="48" height="48" rx="12" fill="var(--m-violet-soft)"/><g transform="translate(962 88) scale(1)" fill="none" stroke="currentColor" stroke-width="1.7" stroke-linecap="round" stroke-linejoin="round" aria-hidden="true"><rect x="2" y="3" width="20" height="14" rx="2" ry="2"/><line x1="8" y1="21" x2="16" y2="21"/><line x1="12" y1="17" x2="12" y2="21"/></g><text x="950" y="149" class="eyebrow" fill="var(--m-violet)">Viewing output</text><text x="950" y="177" class="label">Rec.709 Preview</text></g><text x="40" y="264" class="detail muted">Signal flow</text><path d="M108 260H1160" class="keyline"/></svg>