<svg xmlns="http://www.w3.org/2000/svg" viewBox="0 0 1200 676" role="img" aria-labelledby="m-reel-based-composition-of-a-feature-length-film-title m-reel-based-composition-of-a-feature-length-film-desc" preserveAspectRatio="xMidYMid meet"><title id="m-reel-based-composition-of-a-feature-length-film-title">Reel-based composition of a feature-length film</title><desc id="m-reel-based-composition-of-a-feature-length-film-desc">Reel timeline of 6 reel(s) with head and tail leaders.</desc><style>
  svg{display:block;width:100%;height:auto;font-family:var(--m-font,ui-sans-serif,-apple-system,BlinkMacSystemFont,"Segoe UI",sans-serif);color:var(--m-text);background:var(--m-surface);border:1px solid var(--m-line);border-radius:16px;box-shadow:var(--m-shadow)}
  text{fill:var(--m-text)} .muted{fill:var(--m-muted)} .subtle{fill:var(--m-subtle)}
  .label{font-size:15px;font-weight:650;letter-spacing:-.01em}.wf-label{font-size:13px;font-weight:650;letter-spacing:-.01em}.eyebrow{font-size:10px;font-weight:700;letter-spacing:.09em;text-transform:uppercase}.detail{font-size:11px}.mono{font-family:var(--m-mono,monospace);font-variant-numeric:tabular-nums}.keyline{stroke:var(--m-line)}
</style><g role="group" aria-label="Reel 1, duration 00:18:22:06"><text x="40" y="51" class="label">Reel 1</text><text x="40" y="69" class="detail mono muted">00:18:22:06</text><path d="M148 26H196V66H148A8 8 0 0 1 140 58V34A8 8 0 0 1 148 26Z" fill="var(--m-sand-soft)" stroke="var(--m-sand)"/><rect x="196" y="26" width="837.8183517358347" height="40" fill="var(--m-blue-soft)" stroke="var(--m-blue)"/><path d="M1033.8183517358348 26H1074.8183517358348A8 8 0 0 1 1082.8183517358348 34V58A8 8 0 0 1 1074.8183517358348 66H1033.8183517358348Z" fill="var(--m-coral-soft)" stroke="var(--m-coral)"/><text x="168" y="51" text-anchor="middle" class="label" fill="var(--m-sand)">Head</text><text x="614.9091758679174" y="51" text-anchor="middle" class="label">Program</text><text x="1058.3183517358348" y="51" text-anchor="middle" class="label" fill="var(--m-coral)">Tail</text><text x="140" y="19" class="detail mono muted">01:00:00:00</text><text x="196" y="83" class="detail mono muted">01:00:08:00</text><text x="1033.8183517358348" y="83" text-anchor="end" class="detail mono muted">01:18:30:06</text><text x="1082.8183517358348" y="19" text-anchor="end" class="detail mono muted">01:18:34:06</text></g><g role="group" aria-label="Reel 2, duration 00:19:41:15"><text x="40" y="151" class="label">Reel 2</text><text x="40" y="169" class="detail mono muted">00:19:41:15</text><path d="M148 126H196V166H148A8 8 0 0 1 140 158V134A8 8 0 0 1 148 126Z" fill="var(--m-sand-soft)" stroke="var(--m-sand)"/><rect x="196" y="126" width="898.1511543387213" height="40" fill="var(--m-green-soft)" stroke="var(--m-green)"/><path d="M1094.1511543387214 126H1135.1511543387214A8 8 0 0 1 1143.1511543387214 134V158A8 8 0 0 1 1135.1511543387214 166H1094.1511543387214Z" fill="var(--m-coral-soft)" stroke="var(--m-coral)"/><text x="168" y="151" text-anchor="middle" class="label" fill="var(--m-sand)">Head</text><text x="645.0755771693607" y="151" text-anchor="middle" class="label">Program</text><text x="1118.6511543387214" y="151" text-anchor="middle" class="label" fill="var(--m-coral)">Tail</text><text x="140" y="119" class="detail mono muted">02:00:00:00</text><text x="196" y="183" class="detail mono muted">02:00:08:00</text><text x="1094.1511543387214" y="183" text-anchor="end" class="detail mono muted">02:19:49:15</text><text x="1143.1511543387214" y="119" text-anchor="end" class="detail mono muted">02:19:53:15</text></g><g role="group" aria-label="Reel 3, duration 00:17:55:11"><text x="40" y="251" class="label">Reel 3</text><text x="40" y="269" class="detail mono muted">00:17:55:11</text><path d="M148 226H196V266H148A8 8 0 0 1 140 258V234A8 8 0 0 1 148 226Z" fill="var(--m-sand-soft)" stroke="var(--m-sand)"/><rect x="196" y="226" width="817.4540514347028" height="40" fill="var(--m-blue-soft)" stroke="var(--m-blue)"/><path d="M1013.4540514347028 226H1054.4540514347027A8 8 0 0 1 1062.4540514347027 234V258A8 8 0 0 1 1054.4540514347027 266H1013.4540514347028Z" fill="var(--m-coral-soft)" stroke="var(--m-coral)"/><text x="168" y="251" text-anchor="middle" class="label" fill="var(--m-sand)">Head</text><text x="604.7270257173514" y="251" text-anchor="middle" class="label">Program</text><text x="1037.9540514347027" y="251" text-anchor="middle" class="label" fill="var(--m-coral)">Tail</text><text x="140" y="219" class="detail mono muted">03:00:00:00</text><text x="196" y="283" class="detail mono muted">03:00:08:00</text><text x="1013.4540514347028" y="283" text-anchor="end" class="detail mono muted">03:18:03:11</text><text x="1062.4540514347027" y="219" text-anchor="end" class="detail mono muted">03:18:07:11</text></g><g role="group" aria-label="Reel 4, duration 00:20:03:19"><text x="40" y="351" class="label">Reel 4</text><text x="40" y="369" class="detail mono muted">00:20:03:19</text><path d="M148 326H196V366H148A8 8 0 0 1 140 358V334A8 8 0 0 1 148 326Z" fill="var(--m-sand-soft)" stroke="var(--m-sand)"/><rect x="196" y="326" width="915" height="40" fill="var(--m-green-soft)" stroke="var(--m-green)"/><path d="M1111 326H1152A8 8 0 0 1 1160 334V358A8 8 0 0 1 1152 366H1111Z" fill="var(--m-coral-soft)" stroke="var(--m-coral)"/><text x="168" y="351" text-anchor="middle" class="label" fill="var(--m-sand)">Head</text><text x="653.5" y="351" text-anchor="middle" class="label">Program</text><text x="1135.5" y="351" text-anchor="middle" class="label" fill="var(--m-coral)">Tail</text><text x="140" y="319" class="detail mono muted">04:00:00:00</text><text x="196" y="383" class="detail mono muted">04:00:08:00</text><text x="1111" y="383" text-anchor="end" class="detail mono muted">04:20:11:19</text><text x="1160" y="319" text-anchor="end" class="detail mono muted">04:20:15:19</text></g><g role="group" aria-label="Reel 5, duration 00:16:48:02"><text x="40" y="451" class="label">Reel 5</text><text x="40" y="469" class="detail mono muted">00:16:48:02</text><path d="M148 426H196V466H148A8 8 0 0 1 140 458V434A8 8 0 0 1 148 426Z" fill="var(--m-sand-soft)" stroke="var(--m-sand)"/><rect x="196" y="426" width="766.2424284379218" height="40" fill="var(--m-blue-soft)" stroke="var(--m-blue)"/><path d="M962.2424284379218 426H1003.2424284379218A8 8 0 0 1 1011.2424284379218 434V458A8 8 0 0 1 1003.2424284379218 466H962.2424284379218Z" fill="var(--m-coral-soft)" stroke="var(--m-coral)"/><text x="168" y="451" text-anchor="middle" class="label" fill="var(--m-sand)">Head</text><text x="579.1212142189609" y="451" text-anchor="middle" class="label">Program</text><text x="986.7424284379218" y="451" text-anchor="middle" class="label" fill="var(--m-coral)">Tail</text><text x="140" y="419" class="detail mono muted">05:00:00:00</text><text x="196" y="483" class="detail mono muted">05:00:08:00</text><text x="962.2424284379218" y="483" text-anchor="end" class="detail mono muted">05:16:56:02</text><text x="1011.2424284379218" y="419" text-anchor="end" class="detail mono muted">05:17:00:02</text></g><g role="group" aria-label="Reel 6, duration 00:12:37:20"><text x="40" y="551" class="label">Reel 6</text><text x="40" y="569" class="detail mono muted">00:12:37:20</text><path d="M148 526H196V566H148A8 8 0 0 1 140 558V534A8 8 0 0 1 148 526Z" fill="var(--m-sand-soft)" stroke="var(--m-sand)"/><rect x="196" y="526" width="576.0278287355924" height="40" fill="var(--m-green-soft)" stroke="var(--m-green)"/><path d="M772.0278287355924 526H813.0278287355924A8 8 0 0 1 821.0278287355924 534V558A8 8 0 0 1 813.0278287355924 566H772.0278287355924Z" fill="var(--m-coral-soft)" stroke="var(--m-coral)"/><text x="168" y="551" text-anchor="middle" class="label" fill="var(--m-sand)">Head</text><text x="484.0139143677962" y="551" text-anchor="middle" class="label">Program</text><text x="796.5278287355924" y="551" text-anchor="middle" class="label" fill="var(--m-coral)">Tail</text><text x="140" y="519" class="detail mono muted">06:00:00:00</text><text x="196" y="583" class="detail mono muted">06:00:08:00</text><text x="772.0278287355924" y="583" text-anchor="end" class="detail mono muted">06:12:45:20</text><text x="821.0278287355924" y="519" text-anchor="end" class="detail mono muted">06:12:49:20</text></g><g transform="translate(140 651)"><rect width="8" height="8" rx="2" fill="var(--m-sand-soft)" stroke="var(--m-sand)"/><text x="15" y="8" class="detail muted">head leader</text><rect x="110" width="8" height="8" rx="2" fill="var(--m-coral-soft)" stroke="var(--m-coral)"/><text x="125" y="8" class="detail muted">tail leader · program lengths scaled to longest reel</text></g></svg>