<svg xmlns="http://www.w3.org/2000/svg" viewBox="0 0 1200 176" role="img" aria-labelledby="m-premium-cable-or-ott-commercial-free-episode-with-a-slate-leader-and-a-tail-leader-title m-premium-cable-or-ott-commercial-free-episode-with-a-slate-leader-and-a-tail-leader-desc" preserveAspectRatio="xMidYMid meet"><title id="m-premium-cable-or-ott-commercial-free-episode-with-a-slate-leader-and-a-tail-leader-title">Premium-cable or OTT commercial-free episode with a slate leader and a tail leader</title><desc id="m-premium-cable-or-ott-commercial-free-episode-with-a-slate-leader-and-a-tail-leader-desc">Reel timeline of 1 reel(s) with head and tail leaders.</desc><style>
  svg{display:block;width:100%;height:auto;font-family:var(--m-font,ui-sans-serif,-apple-system,BlinkMacSystemFont,"Segoe UI",sans-serif);color:var(--m-text);background:var(--m-surface);border:1px solid var(--m-line);border-radius:16px;box-shadow:var(--m-shadow)}
  text{fill:var(--m-text)} .muted{fill:var(--m-muted)} .subtle{fill:var(--m-subtle)}
  .label{font-size:15px;font-weight:650;letter-spacing:-.01em}.wf-label{font-size:13px;font-weight:650;letter-spacing:-.01em}.eyebrow{font-size:10px;font-weight:700;letter-spacing:.09em;text-transform:uppercase}.detail{font-size:11px}.mono{font-family:var(--m-mono,monospace);font-variant-numeric:tabular-nums}.keyline{stroke:var(--m-line)}
</style><g role="group" aria-label="Episode 1, duration 00:58:43:14"><text x="40" y="51" class="label">Episode 1</text><text x="40" y="69" class="detail mono muted">00:58:43:14</text><path d="M148 26H296V66H148A8 8 0 0 1 140 58V34A8 8 0 0 1 148 26Z" fill="var(--m-sand-soft)" stroke="var(--m-sand)"/><rect x="296" y="26" width="728" height="40" fill="var(--m-blue-soft)" stroke="var(--m-blue)"/><path d="M1024 26H1152A8 8 0 0 1 1160 34V58A8 8 0 0 1 1152 66H1024Z" fill="var(--m-coral-soft)" stroke="var(--m-coral)"/><text x="218" y="51" text-anchor="middle" class="label" fill="var(--m-sand)">Slate / Leader [240]</text><text x="660" y="51" text-anchor="middle" class="label">Program</text><text x="1092" y="51" text-anchor="middle" class="label" fill="var(--m-coral)">Tail Leader [120]</text><text x="140" y="19" class="detail mono muted">01:00:00:00</text><text x="296" y="83" class="detail mono muted">01:00:10:00</text><text x="1024" y="83" text-anchor="end" class="detail mono muted">01:58:53:14</text><text x="1160" y="19" text-anchor="end" class="detail mono muted">01:58:58:14</text></g><g transform="translate(140 151)"><rect width="8" height="8" rx="2" fill="var(--m-sand-soft)" stroke="var(--m-sand)"/><text x="15" y="8" class="detail muted">head leader</text><rect x="110" width="8" height="8" rx="2" fill="var(--m-coral-soft)" stroke="var(--m-coral)"/><text x="125" y="8" class="detail muted">tail leader · program lengths scaled to longest reel</text></g></svg>