<svg xmlns="http://www.w3.org/2000/svg" viewBox="0 0 1200 300" role="img" aria-labelledby="m-a-scene-referred-technical-transform-from-sony-s-log3-s-gamut3-to-arri-logc-alexa-wide-gamut-title m-a-scene-referred-technical-transform-from-sony-s-log3-s-gamut3-to-arri-logc-alexa-wide-gamut-desc" preserveAspectRatio="xMidYMid meet"><title id="m-a-scene-referred-technical-transform-from-sony-s-log3-s-gamut3-to-arri-logc-alexa-wide-gamut-title">A scene-referred technical transform from Sony S-Log3 S-Gamut3 to ARRI LogC ALEXA Wide Gamut</title><desc id="m-a-scene-referred-technical-transform-from-sony-s-log3-s-gamut3-to-arri-logc-alexa-wide-gamut-desc">Sony S-Log3 to ARRI LogC.</desc><style>
  svg{display:block;width:100%;height:auto;font-family:var(--m-font,ui-sans-serif,-apple-system,BlinkMacSystemFont,"Segoe UI",sans-serif);color:var(--m-text);background:var(--m-surface);border:1px solid var(--m-line);border-radius:16px;box-shadow:var(--m-shadow)}
  text{fill:var(--m-text)} .muted{fill:var(--m-muted)} .subtle{fill:var(--m-subtle)}
  .label{font-size:15px;font-weight:650;letter-spacing:-.01em}.wf-label{font-size:13px;font-weight:650;letter-spacing:-.01em}.eyebrow{font-size:10px;font-weight:700;letter-spacing:.09em;text-transform:uppercase}.detail{font-size:11px}.mono{font-family:var(--m-mono,monospace);font-variant-numeric:tabular-nums}.keyline{stroke:var(--m-line)}
</style><defs><marker id="m-a-scene-referred-technical-transform-from-sony-s-log3-s-gamut3-to-arri-logc-alexa-wide-gamut-arrow" viewBox="0 0 10 10" refX="8" refY="5" markerWidth="7" markerHeight="7" orient="auto-start-reverse"><path d="M1 1l8 4-8 4z" fill="var(--m-line-strong)"/></marker></defs><path d="M567 146H629" fill="none" stroke="var(--m-line-strong)" stroke-width="1.5" marker-end="url(#m-a-scene-referred-technical-transform-from-sony-s-log3-s-gamut3-to-arri-logc-alexa-wide-gamut-arrow)"/><g role="group" aria-label="Sony S-Log3"><rect x="325" y="56" width="230" height="180" rx="14" fill="var(--m-surface-raised)" stroke="var(--m-line)"/><rect x="345" y="76" width="48" height="48" rx="12" fill="var(--m-green-soft)"/><g transform="translate(357 88) scale(1)" fill="none" stroke="currentColor" stroke-width="1.7" stroke-linecap="round" stroke-linejoin="round" aria-hidden="true"><path d="M23 19a2 2 0 0 1-2 2H3a2 2 0 0 1-2-2V8a2 2 0 0 1 2-2h4l2-3h6l2 3h4a2 2 0 0 1 2 2z"/><circle cx="12" cy="13" r="4"/></g><text x="345" y="149" class="eyebrow" fill="var(--m-green)">Source camera</text><text x="345" y="177" class="label">Sony S-Log3</text><text x="345" y="201" class="detail muted">S-Gamut3</text></g><g role="group" aria-label="ARRI LogC"><rect x="645" y="56" width="230" height="180" rx="14" fill="var(--m-surface-raised)" stroke="var(--m-line)"/><rect x="665" y="76" width="48" height="48" rx="12" fill="var(--m-blue-soft)"/><g transform="translate(677 88) scale(1)" fill="none" stroke="currentColor" stroke-width="1.7" stroke-linecap="round" stroke-linejoin="round" aria-hidden="true"><path d="M23 19a2 2 0 0 1-2 2H3a2 2 0 0 1-2-2V8a2 2 0 0 1 2-2h4l2-3h6l2 3h4a2 2 0 0 1 2 2z"/><circle cx="12" cy="13" r="4"/></g><text x="665" y="149" class="eyebrow" fill="var(--m-blue)">Matched to</text><text x="665" y="177" class="label">ARRI LogC</text><text x="665" y="201" class="detail muted">ALEXA Wide Gamut</text></g><text x="325" y="264" class="detail muted">Signal flow</text><path d="M393 260H875" class="keyline"/></svg>